<svg id="Logo" xmlns="http://www.w3.org/2000/svg" width="79.261" height="67.771" viewBox="0 0 79.261 67.771">
  <path id="Path_13" data-name="Path 13" d="M3065.382,1782.875v32.4l6.884,3.938v-32.4Z" transform="translate(-3046.605 -1768.293)" fill="#f5f5f5"/>
  <path id="Path_14" data-name="Path 14" d="M2964.139,1843.117l-11.894,11.784v-35.135l-6.884-3.938V1859.6l7.527,4.306,11.251-11.147Z" transform="translate(-2945.361 -1796.139)" fill="#f5f5f5"/>
  <path id="Path_15" data-name="Path 15" d="M3158.433,1713.6l-15.676,42.672v-23.508l-6.884-3.938v32.391l4.187,2.4v0l6.053,3.463,20.438-55.634Z" transform="translate(-3106.067 -1707.939)" fill="#f5f5f5"/>
  <path id="Path_16" data-name="Path 16" d="M3338.835,1722.547v-12.215l6.334-1.682v-6.821l-6.334,1.682v-6.2l6.334-1.682v-6.821l-6.334,1.682h0l-6.884,1.827v34.929l7.528,4.307,11.25-11.145v-9.646Z" transform="translate(-3271.468 -1688.809)" fill="#f5f5f5"/>
</svg>
