<svg xmlns="http://www.w3.org/2000/svg" width="150" height="150" viewBox="25 25 150 150"><path d="M131.613 60.645h-60c-5.161 0-9.032 3.871-9.032 9.032v60c0 5.161 3.871 9.031 9.032 9.031h60c5.161 0 9.031-3.87 9.031-9.031v-60c.001-4.516-3.87-9.032-9.031-9.032zm-14.839 10.968c0-1.29 1.29-1.936 1.935-1.936h10.323c1.29 0 1.936 1.291 1.936 1.936v10.323c0 1.29-1.29 1.936-1.936 1.936h-10.323c-1.289 0-1.935-1.291-1.935-1.936V71.613zm-15.483 13.548c8.387 0 14.838 7.097 14.838 14.839s-7.097 14.839-14.838 14.839c-8.388 0-14.839-6.452-14.839-14.839s6.451-14.839 14.839-14.839zm30.967 42.581c0 1.29-1.29 1.936-1.936 1.936H73.548c-1.29 0-1.936-1.291-1.936-1.936V93.548h7.097c-.645 1.936-.645 3.871-.645 6.452 0 12.903 10.968 23.871 23.871 23.871s23.871-10.968 23.871-23.871c0-1.936 0-4.516-.646-6.452h7.097v34.194z"/></svg>