<svg version="1.1" id="Layer_1" xmlns="http://www.w3.org/2000/svg" x="0" y="0" viewBox="0 0 58.6 58.6" xml:space="preserve"><style>.st0{fill:#fff}</style><g id="Play_Button" transform="translate(.5 .5)"><path class="st0" d="M28.8 58.1C12.7 58.1-.5 45-.5 28.8S12.7-.5 28.8-.5C45-.5 58.1 12.7 58.1 28.8S45 58.1 28.8 58.1zm0-57.6C13.2.5.5 13.2.5 28.8s12.7 28.3 28.3 28.3 28.3-12.7 28.3-28.3S44.4.5 28.8.5z"/><g id="Polygon_3"><path d="M9.5 0L19 16H0L9.5 0z" fill="none" transform="rotate(90 10.5 29.5)"/><path class="st0" d="M9.5 2L1.8 15h15.5L9.5 2m0-2L19 16H0L9.5 0z" transform="rotate(90 10.5 29.5)"/></g></g></svg>