<svg xmlns="http://www.w3.org/2000/svg" width="200" height="200" viewBox="0 0 200 200"><circle fill="none" cx="100.068" cy="100.068" r="100.068"/><path d="M100.068 200.137C44.858 200.137 0 155.278 0 100.068S44.858 0 100.068 0c55.211 0 100.068 44.858 100.068 100.068s-44.857 100.069-100.068 100.069zm0-193.236C49 6.901 6.901 49 6.901 100.068c0 51.07 42.098 93.167 93.167 93.167s93.168-42.097 93.168-93.167c0-51.068-42.098-93.167-93.168-93.167z"/><path d="M133.194 71.773l-4.831-4.83-28.295 28.295-28.294-28.295-4.831 4.83 28.294 28.296-28.294 28.295 4.83 4.83 28.295-28.295 28.295 28.295 4.831-4.83-28.296-28.295 28.296-28.296z"/></svg>