<svg version="1.1" id="Layer_1" xmlns="http://www.w3.org/2000/svg" x="0" y="0" viewBox="0 0 31 31" xml:space="preserve"><style>.st0{fill:#fff}</style><g id="Group_2777" transform="translate(.5 .5)"><path id="Path_3398" class="st0" d="M20.4 10c-.5.3-1.1.5-1.7.6-1-1.1-2.7-1.1-3.7-.1-.7.6-1 1.6-.8 2.5-2.1-.1-4.1-1.1-5.4-2.7-.7 1.2-.3 2.7.8 3.5-.4 0-.8-.1-1.2-.3 0 1.3.9 2.3 2.1 2.6-.4.1-.8.1-1.2 0 .3 1.1 1.3 1.8 2.5 1.8-.9.7-2.1 1.1-3.3 1.1h-.6c3.5 2.2 8.1 1.2 10.3-2.3.8-1.2 1.2-2.6 1.2-4v-.3c.5-.4 1-.8 1.3-1.4-.5.2-1 .4-1.5.4.6-.3 1-.8 1.2-1.4z"/><path class="st0" d="M15 30.5C6.5 30.5-.5 23.5-.5 15S6.5-.5 15-.5s15.5 7 15.5 15.5-7 15.5-15.5 15.5zm0-30C7 .5.5 7 .5 15S7 29.5 15 29.5 29.5 23 29.5 15 23 .5 15 .5z"/></g></svg>