<svg version="1.1" id="Medium_Link_Button" xmlns="http://www.w3.org/2000/svg" x="0" y="0" viewBox="0 0 78 78" xml:space="preserve"><style>.st1{fill:#fff}</style><g id="Group_2814" transform="translate(-780 -773)"><g id="Ellipse_2" transform="translate(780 773)"><circle cx="39" cy="39" r="39" fill="none"/><path class="st1" d="M39 78C17.5 78 0 60.5 0 39S17.5 0 39 0s39 17.5 39 39-17.5 39-39 39zm0-77C18 1 1 18 1 39s17 38 38 38 38-17 38-38S60 1 39 1z"/></g><path class="st1" d="M827.6 820.4c0 1.3-1.1 2.4-2.4 2.4h-14.1c-1.3 0-2.4-1.1-2.4-2.4v-14.1c0-1.3 1.1-2.4 2.4-2.4h10.2v-1h-10.2c-1.9 0-3.4 1.5-3.4 3.4v14.1c0 1.9 1.5 3.4 3.4 3.4h14.1c1.9 0 3.4-1.5 3.4-3.4v-10.2h-1v10.2z"/><path class="st1" d="M826.3 798.4v1h5.1l-16.5 16.5.7.7 16.5-16.5v5.1h1v-6.8z"/></g></svg>