<svg version="1.1" id="Layer_1" xmlns="http://www.w3.org/2000/svg" x="0" y="0" viewBox="0 0 79 79" xml:space="preserve"><style>.st0{fill:#fff}</style><g id="Medium_Play_Button" transform="translate(.5 .5)"><path class="st0" d="M39 78.5C17.2 78.5-.5 60.8-.5 39S17.2-.5 39-.5 78.5 17.2 78.5 39 60.8 78.5 39 78.5zm0-78C17.8.5.5 17.8.5 39S17.8 77.5 39 77.5 77.5 60.2 77.5 39 60.2.5 39 .5z"/><g id="Polygon_3"><path d="M12.5 0L25 23H0L12.5 0z" fill="none" transform="rotate(90 14.439 40.718)"/><path class="st0" d="M12.5 2.1L1.7 22h21.6L12.5 2.1m0-2.1L25 23H0L12.5 0z" transform="rotate(90 14.439 40.718)"/></g></g></svg>