<svg version="1.1" id="Video_Contol_Element_Exit_Fullscreen" xmlns="http://www.w3.org/2000/svg" x="0" y="0" viewBox="0 0 29 29" xml:space="preserve"><style>.st1{fill:#f5f5f5}</style><circle cx="14.5" cy="14.5" r="14.5" fill="none"/><path class="st1" d="M14.5 0C6.5 0 0 6.5 0 14.5S6.5 29 14.5 29 29 22.5 29 14.5 22.5 0 14.5 0zm0 27.9c-7.4 0-13.4-6-13.4-13.4s6-13.4 13.4-13.4 13.4 6 13.4 13.4-6 13.4-13.4 13.4z"/><path class="st1" d="M20.5 9.1c-.2-.2-.5-.2-.7 0l-5 5-4.9-5c-.2-.1-.6-.1-.8 0s-.1.6 0 .8l4.9 4.9-4.9 4.9c-.2.2-.2.5 0 .7.1.1.2.1.4.1s.3 0 .4-.1l4.9-4.9 5 5c.1.1.2.1.4.1s.3 0 .4-.1c.2-.2.2-.5 0-.7l-5-5 5-5c.1-.1.1-.5-.1-.7z"/></svg>