<svg xmlns="http://www.w3.org/2000/svg" width="150" height="150" viewBox="25 25 150 150"><path d="M134.839 67.742c-3.226 1.935-7.097 3.226-10.968 3.871-6.451-7.097-17.42-7.097-23.871-.645-4.516 3.871-6.452 10.323-5.161 16.129C81.291 86.452 68.387 80 60 69.677c-4.516 7.742-1.936 17.419 5.161 22.581-2.581 0-5.161-.646-7.742-1.936 0 8.387 5.806 14.838 13.548 16.774a15.706 15.706 0 01-7.742 0c1.936 7.097 8.387 11.612 16.129 11.612-5.807 4.517-13.548 7.098-21.291 7.098h-3.871c22.581 14.193 52.258 7.742 66.451-14.839 5.162-7.742 7.742-16.774 7.742-25.807v-1.936c3.227-2.581 6.452-5.161 8.388-9.032-3.226 1.291-6.452 2.581-9.678 2.581 3.873-1.934 6.454-5.16 7.744-9.031z"/></svg>