<svg version="1.1" id="Group_2917" xmlns="http://www.w3.org/2000/svg" x="0" y="0" viewBox="0 0 29 29" xml:space="preserve"><style>.st1{fill:#fff}</style><g id="Group_2735" transform="translate(-805 -2764)"><g id="Group_2734" transform="translate(643 1772)"><g id="Ellipse_2" transform="translate(162 992)"><circle cx="14.5" cy="14.5" r="14.5" fill="none"/><path class="st1" d="M14.5 29C6.5 29 0 22.5 0 14.5S6.5 0 14.5 0 29 6.5 29 14.5 22.5 29 14.5 29zm0-28C7.1 1 1 7.1 1 14.5S7.1 28 14.5 28 28 21.9 28 14.5 21.9 1 14.5 1z"/></g></g></g><path class="st1" d="M15.4 22.7h-.8v-1.4c-1-.1-1.9-.3-2.5-.8s-1.1-1.3-1.3-2.3c0-.2 0-.3-.1-.4v-.4h1.2c0 .4.1.8.2 1.1.1.4.3.7.6.9.2.3.5.5.9.7.3.2.7.3 1.1.3V15c-.5-.1-1-.3-1.4-.4-.4-.2-.8-.4-1.1-.6-.3-.3-.6-.6-.8-1-.2-.4-.3-.9-.3-1.4 0-.5.1-1 .3-1.4.2-.4.5-.8.8-1 .3-.3.7-.5 1.1-.7.4-.1.9-.2 1.4-.2V7.2h.8v1.1c.5 0 .9.1 1.4.2.4.1.8.3 1.1.6.3.3.6.6.7 1 .2.4.3.8.3 1.3h-1.2c0-.3-.1-.6-.2-.9-.1-.3-.3-.5-.5-.7-.2-.2-.5-.3-.7-.4-.3-.1-.6-.2-.9-.2V14c.6.1 1.1.3 1.6.5s.9.4 1.2.7.6.6.8 1.1c.2.4.3 1 .3 1.7 0 .5-.1 1-.3 1.4-.2.4-.5.8-.9 1.1s-.8.5-1.3.7c-.5.2-.9.2-1.4.3v1.2zm-.8-13.4c-.3 0-.7.1-.9.2-.3.1-.6.3-.8.5-.2.2-.4.4-.5.7s-.2.6-.2.9c0 .4.1.7.2 1 .1.3.3.5.5.7.2.2.5.3.8.4l.9.3V9.3zm.8 11.1c.4 0 .7-.1 1.1-.2s.6-.3.9-.5c.3-.2.5-.5.6-.8.1-.3.2-.7.2-1.1 0-.4-.1-.8-.2-1.1s-.3-.5-.6-.7c-.2-.2-.5-.3-.9-.4-.3-.1-.7-.2-1.1-.3v5.1z"/></svg>