<svg version="1.1" id="Link_Button" xmlns="http://www.w3.org/2000/svg" x="0" y="0" viewBox="0 0 57.6 57.6" xml:space="preserve"><style>.st1{fill:#fff}</style><g id="Ellipse_2"><circle cx="28.8" cy="28.8" r="28.8" fill="none"/><path class="st1" d="M28.8 57.6C12.9 57.6 0 44.7 0 28.8S12.9 0 28.8 0s28.8 12.9 28.8 28.8-12.9 28.8-28.8 28.8zm0-56.6C13.5 1 1 13.5 1 28.8s12.5 27.8 27.8 27.8 27.8-12.5 27.8-27.8S44.2 1 28.8 1z"/></g><path class="st1" d="M35.7 35.6c0 1-.8 1.9-1.9 1.9H22.1c-1 0-1.9-.8-1.9-1.9V23.9c0-.5.2-1 .5-1.3.4-.4.8-.5 1.3-.5h8.4v-1H22c-.8 0-1.5.3-2 .8s-.8 1.3-.8 2v11.7c0 1.6 1.3 2.9 2.9 2.9h11.7c1.6 0 2.9-1.3 2.9-2.9v-8.4h-1v8.4z"/><path class="st1" d="M34.7 17.3v1h4.1L25.2 31.8l.7.7L39.5 19v4h1v-5.7z"/></svg>