<svg version="1.1" id="Calendar_Day_View" xmlns="http://www.w3.org/2000/svg" x="0" y="0" viewBox="0 0 43 17" xml:space="preserve"><style>.st0{fill:#fff}</style><g id="Group_2764" transform="rotate(180 815.75 434.75)"><g id="Ellipse_7" transform="rotate(90 376.5 1229)"><circle class="st0" cx="3.5" cy="3.5" r="3.5"/><path class="st0" d="M0 3.5C0 1.6 1.6 0 3.5 0S7 1.6 7 3.5 5.4 7 3.5 7 0 5.4 0 3.5zm6 0C6 2.1 4.9 1 3.5 1S1 2.1 1 3.5 2.1 6 3.5 6 6 4.9 6 3.5z"/></g><g id="Ellipse_9" transform="rotate(90 371.5 1224)"><circle class="st0" cx="3.5" cy="3.5" r="3.5"/><path class="st0" d="M0 3.5C0 1.6 1.6 0 3.5 0S7 1.6 7 3.5 5.4 7 3.5 7 0 5.4 0 3.5zm6 0C6 2.1 4.9 1 3.5 1S1 2.1 1 3.5 2.1 6 3.5 6 6 4.9 6 3.5z"/></g><g id="Ellipse_8" transform="rotate(90 371.5 1234)"><circle class="st0" cx="3.5" cy="3.5" r="3.5"/><path class="st0" d="M0 3.5C0 1.6 1.6 0 3.5 0S7 1.6 7 3.5 5.4 7 3.5 7 0 5.4 0 3.5zm6 0C6 2.1 4.9 1 3.5 1S1 2.1 1 3.5 2.1 6 3.5 6 6 4.9 6 3.5z"/></g><g id="Ellipse_10" transform="rotate(90 366.5 1229)"><circle class="st0" cx="3.5" cy="3.5" r="3.5"/><path class="st0" d="M0 3.5C0 1.6 1.6 0 3.5 0S7 1.6 7 3.5 5.4 7 3.5 7 0 5.4 0 3.5zm6 0C6 2.1 4.9 1 3.5 1S1 2.1 1 3.5 2.1 6 3.5 6 6 4.9 6 3.5z"/></g><g id="Rectangle_1683"><path class="st0" d="M4 0h9c2.2 0 4 1.8 4 4v9c0 2.2-1.8 4-4 4H4c-2.2 0-4-1.8-4-4V4c0-2.2 1.8-4 4-4z" transform="rotate(90 389.5 1242)"/><path class="st0" d="M0 13V4c0-2.2 1.8-4 4-4h9c2.2 0 4 1.8 4 4v9c0 2.2-1.8 4-4 4H4c-2.2 0-4-1.8-4-4zm16-9c0-1.7-1.3-3-3-3H4C2.3 1 1 2.3 1 4v9c0 1.7 1.3 3 3 3h9c1.7 0 3-1.3 3-3V4z" transform="rotate(90 389.5 1242)"/></g></g></svg>