<svg version="1.1" id="Large_Play_Button_Blur" xmlns="http://www.w3.org/2000/svg" x="0" y="0" viewBox="0 0 108 108" xml:space="preserve"><style>.st0{fill:#fff}</style><g id="Ellipse_2"><circle class="st0" cx="54" cy="54" r="54"/><path class="st0" d="M54 108C24.2 108 0 83.8 0 54S24.2 0 54 0s54 24.2 54 54-24.2 54-54 54zM54 1C24.8 1 1 24.8 1 54s23.8 53 53 53 53-23.8 53-53S83.2 1 54 1z"/></g><g id="Polygon_1"><path class="st0" d="M20.5 0L41 34H0L20.5 0z" transform="rotate(90 22 56)"/><path class="st0" d="M20.5 1.9L1.8 33h37.5L20.5 1.9m0-1.9L41 34H0L20.5 0z" transform="rotate(90 22 56)"/></g></svg>