<svg id="Layer_1" data-name="Layer 1" xmlns="http://www.w3.org/2000/svg" viewBox="0 0 43.36 41.35"><defs><style>.cls-1{fill:#f5f5f5}</style></defs><path class="cls-1" d="M25.84 0A17.44 17.44 0 008.33 17.32 17.07 17.07 0 0012.08 28L.3 39.64a1 1 0 00.7 1.71 1 1 0 00.7-.28l11.7-11.58a17.54 17.54 0 0030-12.17A17.44 17.44 0 0025.84 0zm0 32.64a15.43 15.43 0 01-15.51-15.32 15.52 15.52 0 0131 0 15.44 15.44 0 01-15.49 15.32z"/><path class="cls-1" d="M24.84 7.15a1 1 0 000 2 9.29 9.29 0 019.33 9.23 1 1 0 001 1 1 1 0 001-1A11.28 11.28 0 0024.84 7.15z"/></svg>