<svg version="1.1" id="Layer_1" xmlns="http://www.w3.org/2000/svg" x="0" y="0" viewBox="0 0 29 29" xml:space="preserve"><style>.st1{fill:#fff}</style><g id="Group_2735" transform="translate(-805 -2764)"><g id="Group_2734" transform="translate(643 1772)"><g id="Ellipse_2" transform="translate(162 992)"><circle cx="14.5" cy="14.5" r="14.5" fill="none"/><path class="st1" d="M14.5 29C6.5 29 0 22.5 0 14.5S6.5 0 14.5 0 29 6.5 29 14.5 22.5 29 14.5 29zm0-28C7.1 1 1 7.1 1 14.5S7.1 28 14.5 28 28 21.9 28 14.5 21.9 1 14.5 1z"/></g></g><path class="st1" d="M817.6 2784.4c-.1 0-.3-.1-.4-.1l-5.1-5.1c-.2-.2-.2-.5 0-.7s.5-.2.7 0l4.7 4.7 8.9-8.9c.2-.2.5-.2.7 0s.2.5 0 .7l-9.2 9.2c-.1.1-.2.2-.3.2z"/></g></svg>