<svg xmlns="http://www.w3.org/2000/svg" width="18" height="11.7" viewBox="0 0 18 11.7"><g data-name="Union 16" fill="none" stroke-linejoin="round"><path d="M1.001 11.701a1 1 0 01-1-1v-9.7a1 1 0 011-1h9.7a1 1 0 011 1v1.924L16.58.66a1 1 0 011.421.909v8.566a1 1 0 01-1.421.9l-4.879-2.263v1.925a1 1 0 01-1 1z"/><path d="M10.7 10.7V8.775a.998.998 0 011.421-.907L17 10.131V1.567h-.001L12.121 3.83a.993.993 0 01-.959-.064.998.998 0 01-.462-.843V1H1v9.7h9.7m0 1H1a1 1 0 01-1-1V1a1 1 0 011-1h9.7a1 1 0 011 1v1.924L16.58.659a1.003 1.003 0 011.42.91v8.566a1 1 0 01-1.42.903L11.7 8.775V10.7a1 1 0 01-1 1z" fill="#f5f5f5"/></g></svg>