<svg version="1.1" id="Mini_Forward_Button" xmlns="http://www.w3.org/2000/svg" x="0" y="0" viewBox="0 0 29 29" xml:space="preserve"><style>.st1{fill:#fff}</style><g id="Ellipse_2"><circle cx="14.5" cy="14.5" r="14.5" fill="none"/><path class="st1" d="M14.5 29C6.5 29 0 22.5 0 14.5S6.5 0 14.5 0 29 6.5 29 14.5 22.5 29 14.5 29zm0-28C7.1 1 1 7.1 1 14.5S7.1 28 14.5 28 28 21.9 28 14.5 21.9 1 14.5 1z"/></g><path class="st1" d="M16.6 14l-6.3-3.6c-.2-.1-.3-.1-.5 0s-.2.3-.2.4v7.3c0 .2.1.3.2.4.1 0 .2.1.2.1s.2 0 .2-.1l6.3-3.6c.2-.1.2-.3.2-.4s0-.4-.1-.5z"/><path class="st1" d="M20.8 14l-6.3-3.6c-.2-.1-.3-.1-.5 0s-.2.3-.2.4v7.3c0 .2.1.3.2.4.1 0 .2.1.2.1s.2 0 .2-.1l6.3-3.6c.2-.1.2-.3.2-.4s.1-.4-.1-.5z"/></svg>