<svg xmlns="http://www.w3.org/2000/svg" width="49.184" height="20.195" viewBox="0 0 49.184 20.195"><g data-name="Group 2834"><path data-name="Path 3282" d="M8.987 2.604a3.02 3.02 0 01-2.421 1.143 3.427 3.427 0 01.865-2.507 3.611 3.611 0 012.4-1.239 3.647 3.647 0 01-.846 2.6m.836 1.326c-1.336-.077-2.479.759-3.113.759s-1.614-.72-2.671-.7A3.946 3.946 0 00.684 6.023c-1.441 2.479-.375 6.149 1.018 8.166.682 1 1.5 2.095 2.575 2.056 1.018-.038 1.422-.663 2.652-.663s1.595.663 2.671.643c1.114-.019 1.816-1 2.5-2a8.772 8.772 0 001.114-2.3 3.62 3.62 0 01-2.171-3.3 3.7 3.7 0 011.758-3.093 3.808 3.808 0 00-2.978-1.614m7.715-2.786V16.11h2.325v-5.106h3.219a4.754 4.754 0 005.005-4.938 4.7 4.7 0 00-4.928-4.919zm2.325 1.96h2.68c2.018 0 3.171 1.076 3.171 2.969s-1.153 2.978-3.18 2.978h-2.671zm12.471 13.133a3.847 3.847 0 003.43-1.912h.048v1.8h2.152V8.658c0-2.162-1.729-3.555-4.391-3.555-2.469 0-4.295 1.412-4.362 3.353h2.095a2.041 2.041 0 012.2-1.528c1.422 0 2.219.663 2.219 1.883v.826l-2.9.173c-2.7.163-4.16 1.268-4.16 3.19-.002 1.949 1.506 3.236 3.668 3.236zm.624-1.777c-1.24 0-2.027-.6-2.027-1.508 0-.941.759-1.489 2.21-1.576l2.584-.163v.846a2.527 2.527 0 01-2.767 2.412zm7.878 5.735c2.267 0 3.334-.865 4.266-3.487l4.083-11.452h-2.364l-2.738 8.86h-.048l-2.738-8.848h-2.431l3.939 10.9-.211.663a1.848 1.848 0 01-1.96 1.556c-.183 0-.538-.019-.682-.038v1.8a6.373 6.373 0 00.884.058z" fill="#fff"/></g></svg>