<svg version="1.1" id="Large_Link_Button" xmlns="http://www.w3.org/2000/svg" x="0" y="0" viewBox="0 0 108 108" xml:space="preserve"><style>.st1{fill:#fff}</style><g id="Group_2814" transform="translate(-780 -773)"><g id="Ellipse_2" transform="translate(780 773)"><circle cx="54" cy="54" r="54" fill="none"/><path class="st1" d="M54 108C24.2 108 0 83.8 0 54S24.2 0 54 0s54 24.2 54 54-24.2 54-54 54zM54 1C24.8 1 1 24.8 1 54s23.8 53 53 53 53-23.8 53-53S83.2 1 54 1z"/></g><path class="st1" d="M846.1 838.6c0 .9-.4 1.8-1 2.4-.7.7-1.5 1-2.4 1h-19.5c-.9 0-1.8-.4-2.4-1-.7-.7-1-1.5-1-2.4v-19.5c0-1.9 1.6-3.5 3.5-3.5h14.1v-1h-14.1c-1.2 0-2.3.5-3.2 1.3s-1.3 2-1.3 3.2v19.5c0 1.2.5 2.3 1.3 3.2.8.8 2 1.3 3.2 1.3h19.5c1.2 0 2.3-.5 3.2-1.3.8-.8 1.3-2 1.3-3.2v-14.1h-1v14.1z"/><path class="st1" d="M844.1 808.3v1h7.6l-23.2 23.2.7.7 23.2-23.2v7.6h1v-9.3z"/></g></svg>