<svg xmlns="http://www.w3.org/2000/svg" width="40.626" height="13.119" viewBox="0 0 40.626 13.119"><path data-name="Path 3515" d="M21.011 4.194c-.023 1.828 1.629 2.847 2.873 3.454 1.279.622 1.708 1.021 1.7 1.577-.01.852-1.02 1.227-1.965 1.242a6.857 6.857 0 01-3.371-.8l-.594 2.78a9.886 9.886 0 003.65.673c3.448 0 5.7-1.7 5.715-4.341.013-3.349-4.632-3.534-4.6-5.031.011-.454.444-.938 1.393-1.061a6.178 6.178 0 013.237.567l.577-2.69A8.8 8.8 0 0026.554 0c-3.245 0-5.527 1.725-5.546 4.194M35.171.232a1.5 1.5 0 00-1.4.931l-4.925 11.759h3.445l.685-1.895h4.21l.4 1.895h3.037L37.973.232h-2.8m.482 3.428l.994 4.765h-2.723l1.728-4.765M16.833.232l-2.716 12.69H17.4L20.115.232h-3.282m-4.856 0L8.56 8.869 7.177 1.525A1.53 1.53 0 005.664.232H.078L0 .6a13.666 13.666 0 013.239 1.08 1.389 1.389 0 01.779 1.115l2.618 10.127h3.469L15.423.232h-3.447" fill="#fff"/></svg>