<svg version="1.1" id="Layer_1" xmlns="http://www.w3.org/2000/svg" x="0" y="0" viewBox="0 0 31 31" xml:space="preserve"><style>.st0{fill:#fff}</style><g id="Group_2776" transform="translate(.5 .5)"><path id="Path_3399" class="st0" d="M19.9 8.9h-9.3c-.8 0-1.4.6-1.4 1.4v9.3c0 .8.6 1.4 1.4 1.4h9.3c.8 0 1.4-.6 1.4-1.4v-9.3c0-.7-.6-1.4-1.4-1.4zm-2.3 1.7c0-.2.2-.3.3-.3h1.6c.2 0 .3.2.3.3v1.6c0 .2-.2.3-.3.3h-1.6c-.2 0-.3-.2-.3-.3v-1.6zm-2.4 2.1c1.3 0 2.3 1.1 2.3 2.3s-1.1 2.3-2.3 2.3c-1.3 0-2.3-1-2.3-2.3 0-1.3 1-2.3 2.3-2.3zm4.8 6.6c0 .2-.2.3-.3.3h-8.8c-.2 0-.3-.2-.3-.3V14h1.1c-.1.3-.1.6-.1 1 0 2 1.7 3.7 3.7 3.7S19 17 19 15c0-.3 0-.7-.1-1H20v5.3z"/><path class="st0" d="M15 30.5C6.5 30.5-.5 23.5-.5 15S6.5-.5 15-.5s15.5 7 15.5 15.5-7 15.5-15.5 15.5zm0-30C7 .5.5 7 .5 15S7 29.5 15 29.5 29.5 23 29.5 15 23 .5 15 .5z"/></g></svg>