<svg data-name="Video Contol Element Volume Icon" xmlns="http://www.w3.org/2000/svg" width="23.509" height="26.797" viewBox="0 0 23.509 26.797"><g data-name="Union 30" fill="none" stroke-linejoin="round"><path d="M21.257 26.592l-9.817-5.694H2.011a2 2 0 01-2-2v-5.321a1.517 1.517 0 010-.358V7.898a2 2 0 012-2h9.429L21.257.204a1.5 1.5 0 012.252 1.3v23.79a1.5 1.5 0 01-1.5 1.5 1.5 1.5 0 01-.752-.202z"/><path d="M22.007 25.546c.082 0 .252-.061.252-.252V1.504c0-.191-.173-.254-.251-.254a.243.243 0 00-.124.036L12.067 6.98c-.19.11-.407.169-.627.169H2.01a.75.75 0 00-.749.749v5.321c0 .05-.003.099-.009.148a.276.276 0 000 .063c.006.05.009.099.009.148v5.321a.75.75 0 00.75.749h9.429c.22 0 .436.059.627.169l9.814 5.692a.246.246 0 00.126.037m0 1.25c-.25 0-.508-.064-.75-.204l-9.817-5.694H2.01a1.999 1.999 0 01-1.999-1.999v-5.321a1.517 1.517 0 010-.359V7.898a2 2 0 012-1.999h9.429L21.257.205c.243-.141.5-.205.75-.205.784 0 1.502.627 1.502 1.503v23.79c0 .877-.718 1.503-1.502 1.503z" fill="#f5f5f5"/></g></svg>