<svg xmlns="http://www.w3.org/2000/svg" width="200" height="200" viewBox="0 0 200 200"><path fill="#F5F5F5" d="M196.686 96.685h-33.149V34.254c0-4.972-3.868-8.287-8.288-8.287-1.656 0-2.762.553-4.42 1.105L96.685 58.563H44.751c-6.078 0-11.05 4.973-11.05 11.05v27.072H3.315C1.657 96.685 0 98.343 0 100s1.657 3.314 3.315 3.314h30.387v27.072c0 6.077 4.972 11.05 11.05 11.05h51.934l54.143 31.491c1.105.553 2.764 1.105 4.42 1.105 4.42 0 8.288-3.314 8.288-8.287v-62.432h33.149c1.656 0 3.314-1.657 3.314-3.314s-1.105-3.314-3.314-3.314zM40.884 69.613c0-2.21 1.658-3.867 3.868-3.867h51.934c1.105 0 2.21-.553 3.315-1.105l54.696-31.492h.552c.553 0 1.658.552 1.658 1.657v62.431H40.884V69.613zm116.022 96.133c0 1.104-1.105 1.657-1.658 1.657h-.552l-54.144-31.491c-1.105-.553-2.21-1.105-3.315-1.105H44.751c-2.21 0-3.868-1.657-3.868-3.867v-27.625h116.022v62.431z"/></svg>