<svg version="1.1" id="Layer_1" xmlns="http://www.w3.org/2000/svg" x="0" y="0" viewBox="0 0 31 31" xml:space="preserve"><style>.st0{fill:#fff}</style><g id="Group_2778" transform="translate(.5 .5)"><path id="Path_3397" class="st0" d="M13.6 11.5v1.7h-2v2.4h2v6H16v-6h2l.3-2.4H16v-1.5c0-.7.2-1.1 1.2-1.1h1.2V8.5c-.6-.1-1.2-.1-1.8-.1-1.6-.1-2.9 1.1-3 2.6v.5z"/><path class="st0" d="M15 30.5C6.5 30.5-.5 23.5-.5 15S6.5-.5 15-.5s15.5 7 15.5 15.5-7 15.5-15.5 15.5zm0-30C7 .5.5 7 .5 15S7 29.5 15 29.5 29.5 23 29.5 15 23 .5 15 .5z"/></g></svg>