<svg xmlns="http://www.w3.org/2000/svg" width="54.408" height="14.501" viewBox="0 0 54.408 14.501"><path d="M29.973 3.915h-2.036a.588.588 0 00-.487.258l-2.811 4.138-1.191-3.977a.589.589 0 00-.564-.42h-2a.352.352 0 00-.334.467l2.243 6.584-2.11 2.976a.353.353 0 00.288.559h2.035a.589.589 0 00.483-.253l6.774-9.778a.352.352 0 00-.29-.554M16.354 7.86a2.259 2.259 0 01-2.287 1.936 1.57 1.57 0 01-1.678-1.971 2.267 2.267 0 012.271-1.951 1.708 1.708 0 011.351.552 1.744 1.744 0 01.344 1.434m2.825-3.945h-2.025a.353.353 0 00-.349.3l-.089.566-.142-.2a2.886 2.886 0 00-2.394-.851 4.661 4.661 0 00-4.523 4.077 3.827 3.827 0 00.754 3.114 3.169 3.169 0 002.552 1.03 3.878 3.878 0 002.801-1.162l-.09.564a.352.352 0 00.293.4.357.357 0 00.055 0h1.826a.588.588 0 00.581-.5l1.1-6.938a.354.354 0 00-.3-.4.369.369 0 00-.053 0m-12.162.049c-.231 1.519-1.392 1.519-2.514 1.519h-.636l.448-2.836a.352.352 0 01.348-.3h.293c.764 0 1.485 0 1.858.435a1.412 1.412 0 01.2 1.181M6.524-.001H2.291a.588.588 0 00-.581.5L-.001 11.352a.353.353 0 00.294.4.348.348 0 00.055 0h2.021a.589.589 0 00.581-.5l.462-2.928a.588.588 0 01.58-.5h1.339c2.789 0 4.4-1.349 4.817-4.023a3.258 3.258 0 00-.54-2.732A3.925 3.925 0 006.523-.012m45.232.311l-1.74 11.051a.353.353 0 00.349.408h1.747a.588.588 0 00.58-.5L54.404.405a.352.352 0 00-.293-.4.363.363 0 00-.056 0h-1.948a.351.351 0 00-.348.3m-5.214 7.562a2.26 2.26 0 01-2.287 1.936 1.569 1.569 0 01-1.678-1.971 2.267 2.267 0 012.271-1.951 1.708 1.708 0 011.351.553 1.746 1.746 0 01.344 1.434m2.825-3.945h-2.025a.353.353 0 00-.349.3l-.09.566-.142-.2a2.885 2.885 0 00-2.394-.851 4.661 4.661 0 00-4.524 4.077 3.83 3.83 0 00.755 3.114 3.168 3.168 0 002.552 1.03 3.881 3.881 0 002.806-1.16l-.091.564a.352.352 0 00.293.4.358.358 0 00.055 0h1.829a.588.588 0 00.581-.5l1.1-6.938a.353.353 0 00-.3-.4.326.326 0 00-.053 0m-12.162.049c-.231 1.519-1.392 1.519-2.514 1.519h-.638l.447-2.836a.353.353 0 01.349-.3h.293c.764 0 1.485 0 1.858.435a1.415 1.415 0 01.2 1.181M36.719.009h-4.233a.588.588 0 00-.581.5l-1.712 10.853a.352.352 0 00.294.4.348.348 0 00.054 0h2.172a.411.411 0 00.407-.347l.486-3.077a.588.588 0 01.58-.5h1.339c2.788 0 4.4-1.349 4.817-4.023a3.258 3.258 0 00-.54-2.731A3.925 3.925 0 0036.717.003" data-name="Gruppe 2384" fill="#fff"/></svg>