<svg version="1.1" id="Edit_Icon" xmlns="http://www.w3.org/2000/svg" x="0" y="0" viewBox="0 0 57.6 57.6" xml:space="preserve"><style>.st1{fill:#fff}</style><g id="Ellipse_2"><circle cx="28.8" cy="28.8" r="28.8" fill="none"/><path class="st1" d="M28.8 57.6C12.9 57.6 0 44.7 0 28.8S12.9 0 28.8 0s28.8 12.9 28.8 28.8-12.9 28.8-28.8 28.8zm0-56.6C13.5 1 1 13.5 1 28.8s12.5 27.8 27.8 27.8 27.8-12.5 27.8-27.8S44.2 1 28.8 1z"/></g><path class="st1" d="M41.3 15.9c-1.6-1.6-4.2-1.6-5.9 0l-2 2-14.6 14.7c-.1.1-.1.1-.1.2l-3 8.1c-.1.2 0 .4.1.5.1.1.2.1.4.1h.2l8.1-3c.1 0 .1-.1.2-.1l14.7-14.7 2-2c.8-.8 1.2-1.8 1.2-2.9s-.5-2.2-1.3-2.9zm-7.5 3l2.2 2.2 2.2 2.2-14 14-4.4-4.4 14-14zM17 40.2l2.3-6.4 2 2 2 2-6.3 2.4zM40.6 21L39 22.7l-2.2-2.2-2.2-2.2 1.6-1.6c1.2-1.2 3.2-1.2 4.4 0 .6.6.9 1.4.9 2.2s-.3 1.5-.9 2.1z"/></svg>