<svg xmlns="http://www.w3.org/2000/svg" viewBox="0 0 17 17"><path d="M3.5 10C1.6 10 0 11.6 0 13.5S1.6 17 3.5 17 7 15.4 7 13.5 5.4 10 3.5 10zm0 6C2.1 16 1 14.9 1 13.5S2.1 11 3.5 11 6 12.1 6 13.5 4.9 16 3.5 16zm10-6c-1.9 0-3.5 1.6-3.5 3.5s1.6 3.5 3.5 3.5 3.5-1.6 3.5-3.5-1.6-3.5-3.5-3.5zm0 6c-1.4 0-2.5-1.1-2.5-2.5s1.1-2.5 2.5-2.5 2.5 1.1 2.5 2.5-1.1 2.5-2.5 2.5zM3.5 0C1.6 0 0 1.6 0 3.5S1.6 7 3.5 7 7 5.4 7 3.5 5.4 0 3.5 0zm0 6C2.1 6 1 4.9 1 3.5S2.1 1 3.5 1 6 2.1 6 3.5 4.9 6 3.5 6zm10 1C15.4 7 17 5.4 17 3.5S15.4 0 13.5 0 10 1.6 10 3.5 11.6 7 13.5 7zm0-6C14.9 1 16 2.1 16 3.5S14.9 6 13.5 6 11 4.9 11 3.5 12.1 1 13.5 1z" fill="#f5f5f5"/></svg>