<svg xmlns="http://www.w3.org/2000/svg" viewBox="0 0 17 17"><path d="M3.5 10C1.6 10 0 11.6 0 13.5v.1c.1 1.6 1.2 3 2.8 3.3.2.1.5.1.7.1s.5 0 .7-.1c1.6-.3 2.7-1.7 2.8-3.3v-.1C7 11.6 5.4 10 3.5 10zm10 0c-1.9 0-3.5 1.6-3.5 3.5v.1c.1 1.6 1.2 3 2.8 3.3.2 0 .5.1.7.1s.5 0 .7-.1c1.6-.3 2.7-1.7 2.8-3.3v-.1c0-1.9-1.6-3.5-3.5-3.5zM3.9 0h-.8C1.4.2 0 1.7 0 3.5 0 5.4 1.6 7 3.5 7S7 5.4 7 3.5C7 1.7 5.6.2 3.9 0zM17 3.5C17 1.7 15.6.3 13.9.1h-.8C11.4.2 10 1.7 10 3.5 10 5.4 11.6 7 13.5 7S17 5.4 17 3.5z" fill="#f5f5f5"/></svg>