<svg data-name="Video Contol Element Play" xmlns="http://www.w3.org/2000/svg" width="25" height="29" viewBox="0 0 25 29"><g data-name="Polygon 36" fill="none" stroke-linejoin="round"><path d="M22.763 13.2a1.5 1.5 0 010 2.6L2.253 27.7A1.5 1.5 0 010 26.4V2.6a1.5 1.5 0 012.253-1.3z"/><path d="M22.26 14.5a.236.236 0 00-.124-.216L1.626 2.388a.235.235 0 00-.25 0 .235.235 0 00-.126.216v23.792c0 .096.042.169.125.217a.235.235 0 00.25 0l20.51-11.897a.236.236 0 00.125-.216m1.25 0c0 .504-.249 1.009-.747 1.298L2.253 27.694A1.5 1.5 0 010 26.396V2.604a1.5 1.5 0 012.253-1.298l20.51 11.896c.498.29.747.794.747 1.298z" fill="#f5f5f5"/></g></svg>