<svg width="17" height="17" viewBox="0 0 20 20" fill="none" xmlns="http://www.w3.org/2000/svg">
    <path d="M11.375 6.375H10.8333V4.25C10.8333 1.90612 8.88983 0 6.5 0C4.11017 0 2.16667 1.90612 2.16667 4.25V6.375H1.625C0.729444 6.375 0 7.08971 0 7.96875V15.4062C0 16.2853 0.729444 17 1.625 17H11.375C12.2706 17 13 16.2853 13 15.4062V7.96875C13 7.08971 12.2706 6.375 11.375 6.375ZM3.61111 4.25C3.61111 2.68742 4.90678 1.41667 6.5 1.41667C8.09322 1.41667 9.38889 2.68742 9.38889 4.25V6.375H3.61111V4.25ZM7.22222 11.8447V13.4583C7.22222 13.8493 6.89939 14.1667 6.5 14.1667C6.10061 14.1667 5.77778 13.8493 5.77778 13.4583V11.8447C5.34806 11.599 5.05556 11.147 5.05556 10.625C5.05556 9.84371 5.70339 9.20833 6.5 9.20833C7.29661 9.20833 7.94444 9.84371 7.94444 10.625C7.94444 11.147 7.65194 11.599 7.22222 11.8447Z" fill="#F5F5F5"/>
</svg>
