<?xml version="1.0" encoding="utf-8"?>
<svg xmlns="http://www.w3.org/2000/svg">
<symbol id="icon-applepay" viewBox="0 0 49.184 20.195"><g data-name="Group 2834"><path data-name="Path 3282" d="M8.987 2.604a3.02 3.02 0 01-2.421 1.143 3.427 3.427 0 01.865-2.507 3.611 3.611 0 012.4-1.239 3.647 3.647 0 01-.846 2.6m.836 1.326c-1.336-.077-2.479.759-3.113.759s-1.614-.72-2.671-.7A3.946 3.946 0 00.684 6.023c-1.441 2.479-.375 6.149 1.018 8.166.682 1 1.5 2.095 2.575 2.056 1.018-.038 1.422-.663 2.652-.663s1.595.663 2.671.643c1.114-.019 1.816-1 2.5-2a8.772 8.772 0 001.114-2.3 3.62 3.62 0 01-2.171-3.3 3.7 3.7 0 011.758-3.093 3.808 3.808 0 00-2.978-1.614m7.715-2.786V16.11h2.325v-5.106h3.219a4.754 4.754 0 005.005-4.938 4.7 4.7 0 00-4.928-4.919zm2.325 1.96h2.68c2.018 0 3.171 1.076 3.171 2.969s-1.153 2.978-3.18 2.978h-2.671zm12.471 13.133a3.847 3.847 0 003.43-1.912h.048v1.8h2.152V8.658c0-2.162-1.729-3.555-4.391-3.555-2.469 0-4.295 1.412-4.362 3.353h2.095a2.041 2.041 0 012.2-1.528c1.422 0 2.219.663 2.219 1.883v.826l-2.9.173c-2.7.163-4.16 1.268-4.16 3.19-.002 1.949 1.506 3.236 3.668 3.236zm.624-1.777c-1.24 0-2.027-.6-2.027-1.508 0-.941.759-1.489 2.21-1.576l2.584-.163v.846a2.527 2.527 0 01-2.767 2.412zm7.878 5.735c2.267 0 3.334-.865 4.266-3.487l4.083-11.452h-2.364l-2.738 8.86h-.048l-2.738-8.848h-2.431l3.939 10.9-.211.663a1.848 1.848 0 01-1.96 1.556c-.183 0-.538-.019-.682-.038v1.8a6.373 6.373 0 00.884.058z" fill="#fff"/></g>
</symbol>
<symbol id="icon-arrow-down" viewBox="0 0 200 200"><path fill="#FFF" d="M98.355 198.171l1.828 1.828 1.829-1.828 50.457-50.457-2.561-2.56-47.896 47.897-.001-193.052h-3.656v193.053l-48.263-47.897-2.56 2.56 50.823 50.456z"/>
</symbol>
<symbol id="icon-arrow-left" viewBox="0 0 200 200"><path fill="#FFF" d="M1.828 98.354L0 100.183l1.828 1.828 50.457 50.457 2.56-2.56-47.898-47.897H200v-3.656H6.947l47.897-48.263-2.56-2.56L1.828 98.354z"/>
</symbol>
<symbol id="icon-arrow-right" viewBox="0 0 54.7 28.7"><path fill="#fff" d="M54.2 14.8l.5-.5-.5-.5L40.4 0l-.7.7 13.1 13.1H0v1h52.8L39.7 28l.7.7 13.8-13.9z"/>
</symbol>
<symbol id="icon-arrow-up" viewBox="0 0 200 200"><path fill="#FFF" d="M101.646 1.828L99.817 0l-1.828 1.828-50.457 50.457 2.559 2.56L97.989 6.947V200h3.656V6.947l48.263 47.897 2.56-2.56-50.822-50.456z"/>
</symbol>
<symbol id="icon-calendar-day-active" viewBox="0 0 17 17"><path d="M17 4C17 1.9 15.4.3 13.4.1H4C3.9 0 3.8 0 3.7 0 1.6.2 0 1.9 0 4v9.1c.1 1.9 1.4 3.4 3.2 3.8.3.1.5.1.8.1h9c.3 0 .5 0 .8-.1 1.8-.4 3.1-1.9 3.2-3.8V4z" fill="#f5f5f5"/>
</symbol>
<symbol id="icon-calendar-day-inactive" viewBox="0 0 17 17"><path d="M13 0H4C1.8 0 0 1.8 0 4v9c0 2.2 1.8 4 4 4h9c2.2 0 4-1.8 4-4V4c0-2.2-1.8-4-4-4zm3 13c0 1.7-1.3 3-3 3H4c-1.7 0-3-1.3-3-3V4c0-1.7 1.3-3 3-3h9c1.7 0 3 1.3 3 3v9z" fill="#f5f5f5"/>
</symbol>
<symbol id="icon-calendar-month-active" viewBox="0 0 17 17"><path d="M3.5 10C1.6 10 0 11.6 0 13.5v.1c.1 1.6 1.2 3 2.8 3.3.2.1.5.1.7.1s.5 0 .7-.1c1.6-.3 2.7-1.7 2.8-3.3v-.1C7 11.6 5.4 10 3.5 10zm10 0c-1.9 0-3.5 1.6-3.5 3.5v.1c.1 1.6 1.2 3 2.8 3.3.2 0 .5.1.7.1s.5 0 .7-.1c1.6-.3 2.7-1.7 2.8-3.3v-.1c0-1.9-1.6-3.5-3.5-3.5zM3.9 0h-.8C1.4.2 0 1.7 0 3.5 0 5.4 1.6 7 3.5 7S7 5.4 7 3.5C7 1.7 5.6.2 3.9 0zM17 3.5C17 1.7 15.6.3 13.9.1h-.8C11.4.2 10 1.7 10 3.5 10 5.4 11.6 7 13.5 7S17 5.4 17 3.5z" fill="#f5f5f5"/>
</symbol>
<symbol id="icon-calendar-month-inactive" viewBox="0 0 17 17"><path d="M3.5 10C1.6 10 0 11.6 0 13.5S1.6 17 3.5 17 7 15.4 7 13.5 5.4 10 3.5 10zm0 6C2.1 16 1 14.9 1 13.5S2.1 11 3.5 11 6 12.1 6 13.5 4.9 16 3.5 16zm10-6c-1.9 0-3.5 1.6-3.5 3.5s1.6 3.5 3.5 3.5 3.5-1.6 3.5-3.5-1.6-3.5-3.5-3.5zm0 6c-1.4 0-2.5-1.1-2.5-2.5s1.1-2.5 2.5-2.5 2.5 1.1 2.5 2.5-1.1 2.5-2.5 2.5zM3.5 0C1.6 0 0 1.6 0 3.5S1.6 7 3.5 7 7 5.4 7 3.5 5.4 0 3.5 0zm0 6C2.1 6 1 4.9 1 3.5S2.1 1 3.5 1 6 2.1 6 3.5 4.9 6 3.5 6zm10 1C15.4 7 17 5.4 17 3.5S15.4 0 13.5 0 10 1.6 10 3.5 11.6 7 13.5 7zm0-6C14.9 1 16 2.1 16 3.5S14.9 6 13.5 6 11 4.9 11 3.5 12.1 1 13.5 1z" fill="#f5f5f5"/>
</symbol>
<symbol id="icon-chevron-down" viewBox="0 0 200 200"><path fill="#FFF" d="M0 52.613l4.878-4.878 95.471 94.773 94.773-94.773L200 52.613l-99.651 99.651L0 52.613z"/>
</symbol>
<symbol id="icon-chevron-left" viewBox="0 0 15 28.7"><path fill="#fff" d="M15 28L1.4 14.3 15 .7l-.7-.7L0 14.3l14.3 14.4z"/>
</symbol>
<symbol id="icon-chevron-right" viewBox="0 0 15 28.7"><path fill="#fff" d="M.7 28.7L0 28l13.6-13.7L0 .7.7 0 15 14.3z"/>
</symbol>
<symbol id="icon-chevron-up" viewBox="0 0 200 200"><path fill="#FFF" d="M200 147.387l-4.878 4.878-95.47-94.773-94.774 94.773L0 147.387l99.651-99.651L200 147.387z"/>
</symbol>
<symbol id="icon-edit-circle" viewBox="0 0 57.6 57.6"><style>.st1{fill:#fff}</style><g id="Ellipse_2"><circle cx="28.8" cy="28.8" r="28.8" fill="none"/><path class="st1" d="M28.8 57.6C12.9 57.6 0 44.7 0 28.8S12.9 0 28.8 0s28.8 12.9 28.8 28.8-12.9 28.8-28.8 28.8zm0-56.6C13.5 1 1 13.5 1 28.8s12.5 27.8 27.8 27.8 27.8-12.5 27.8-27.8S44.2 1 28.8 1z"/></g><path class="st1" d="M41.3 15.9c-1.6-1.6-4.2-1.6-5.9 0l-2 2-14.6 14.7c-.1.1-.1.1-.1.2l-3 8.1c-.1.2 0 .4.1.5.1.1.2.1.4.1h.2l8.1-3c.1 0 .1-.1.2-.1l14.7-14.7 2-2c.8-.8 1.2-1.8 1.2-2.9s-.5-2.2-1.3-2.9zm-7.5 3l2.2 2.2 2.2 2.2-14 14-4.4-4.4 14-14zM17 40.2l2.3-6.4 2 2 2 2-6.3 2.4zM40.6 21L39 22.7l-2.2-2.2-2.2-2.2 1.6-1.6c1.2-1.2 3.2-1.2 4.4 0 .6.6.9 1.4.9 2.2s-.3 1.5-.9 2.1z"/>
</symbol>
<symbol id="icon-edit" viewBox="0 0 25.576 25.576"><path fill="#F5F5F5" d="M24.87 0l.706.707L6.13 20.154l-.707-.707z"/><path fill="#F5F5F5" d="M20.452 25.577H.004V5.129h10.225v1H1.004v18.448h18.448v-9.224h1z"/>
</symbol>
<symbol id="icon-large-link" viewBox="0 0 108 108"><style>.st1{fill:#fff}</style><g id="Group_2814" transform="translate(-780 -773)"><g id="Ellipse_2" transform="translate(780 773)"><circle cx="54" cy="54" r="54" fill="none"/><path class="st1" d="M54 108C24.2 108 0 83.8 0 54S24.2 0 54 0s54 24.2 54 54-24.2 54-54 54zM54 1C24.8 1 1 24.8 1 54s23.8 53 53 53 53-23.8 53-53S83.2 1 54 1z"/></g><path class="st1" d="M846.1 838.6c0 .9-.4 1.8-1 2.4-.7.7-1.5 1-2.4 1h-19.5c-.9 0-1.8-.4-2.4-1-.7-.7-1-1.5-1-2.4v-19.5c0-1.9 1.6-3.5 3.5-3.5h14.1v-1h-14.1c-1.2 0-2.3.5-3.2 1.3s-1.3 2-1.3 3.2v19.5c0 1.2.5 2.3 1.3 3.2.8.8 2 1.3 3.2 1.3h19.5c1.2 0 2.3-.5 3.2-1.3.8-.8 1.3-2 1.3-3.2v-14.1h-1v14.1z"/><path class="st1" d="M844.1 808.3v1h7.6l-23.2 23.2.7.7 23.2-23.2v7.6h1v-9.3z"/></g>
</symbol>
<symbol id="icon-large-play" viewBox="0 0 108 108"><style>.st0{fill:#fff}</style><g id="Ellipse_2"><circle class="st0" cx="54" cy="54" r="54"/><path class="st0" d="M54 108C24.2 108 0 83.8 0 54S24.2 0 54 0s54 24.2 54 54-24.2 54-54 54zM54 1C24.8 1 1 24.8 1 54s23.8 53 53 53 53-23.8 53-53S83.2 1 54 1z"/></g><g id="Polygon_1"><path class="st0" d="M20.5 0L41 34H0L20.5 0z" transform="rotate(90 22 56)"/><path class="st0" d="M20.5 1.9L1.8 33h37.5L20.5 1.9m0-1.9L41 34H0L20.5 0z" transform="rotate(90 22 56)"/></g>
</symbol>
<symbol id="icon-link" viewBox="0 0 57.6 57.6"><style>.st1{fill:#fff}</style><g id="Ellipse_2"><circle cx="28.8" cy="28.8" r="28.8" fill="none"/><path class="st1" d="M28.8 57.6C12.9 57.6 0 44.7 0 28.8S12.9 0 28.8 0s28.8 12.9 28.8 28.8-12.9 28.8-28.8 28.8zm0-56.6C13.5 1 1 13.5 1 28.8s12.5 27.8 27.8 27.8 27.8-12.5 27.8-27.8S44.2 1 28.8 1z"/></g><path class="st1" d="M35.7 35.6c0 1-.8 1.9-1.9 1.9H22.1c-1 0-1.9-.8-1.9-1.9V23.9c0-.5.2-1 .5-1.3.4-.4.8-.5 1.3-.5h8.4v-1H22c-.8 0-1.5.3-2 .8s-.8 1.3-.8 2v11.7c0 1.6 1.3 2.9 2.9 2.9h11.7c1.6 0 2.9-1.3 2.9-2.9v-8.4h-1v8.4z"/><path class="st1" d="M34.7 17.3v1h4.1L25.2 31.8l.7.7L39.5 19v4h1v-5.7z"/>
</symbol>
<symbol id="icon-live" viewBox="0 0 29 29"><g transform="translate(-162 -992)"><g transform="translate(162 992)"><circle cx="14.5" cy="14.5" r="14.5" fill="none"/><path d="M14.5 29C6.5 29 0 22.5 0 14.5S6.5 0 14.5 0 29 6.5 29 14.5 22.5 29 14.5 29zm0-28C7.1 1 1 7.1 1 14.5S7.1 28 14.5 28 28 21.9 28 14.5 21.9 1 14.5 1z" fill="#fff"/></g><circle cx="176.5" cy="1006.5" r="5.5" fill="#ff4d4d"/></g>
</symbol>
<symbol id="icon-loading" viewBox="0 0 24.1 24.1"><path d="M12.042 21.301c-3.677-.024-7.138-2.185-8.6-5.8-1.91-4.73.318-10.16 5.14-12.107 4.728-1.91 10.103.448 12.106 5.139l-2.318.936c-1.386-3.43-5.328-5.18-8.852-3.757-3.43 1.386-5.18 5.329-3.757 8.852 1.386 3.43 5.291 5.088 8.814 3.665l.937 2.318c-1.168.58-2.3.713-3.47.754z"/>
</symbol>
<symbol id="icon-medium-link" viewBox="0 0 78 78"><style>.st1{fill:#fff}</style><g id="Group_2814" transform="translate(-780 -773)"><g id="Ellipse_2" transform="translate(780 773)"><circle cx="39" cy="39" r="39" fill="none"/><path class="st1" d="M39 78C17.5 78 0 60.5 0 39S17.5 0 39 0s39 17.5 39 39-17.5 39-39 39zm0-77C18 1 1 18 1 39s17 38 38 38 38-17 38-38S60 1 39 1z"/></g><path class="st1" d="M827.6 820.4c0 1.3-1.1 2.4-2.4 2.4h-14.1c-1.3 0-2.4-1.1-2.4-2.4v-14.1c0-1.3 1.1-2.4 2.4-2.4h10.2v-1h-10.2c-1.9 0-3.4 1.5-3.4 3.4v14.1c0 1.9 1.5 3.4 3.4 3.4h14.1c1.9 0 3.4-1.5 3.4-3.4v-10.2h-1v10.2z"/><path class="st1" d="M826.3 798.4v1h5.1l-16.5 16.5.7.7 16.5-16.5v5.1h1v-6.8z"/></g>
</symbol>
<symbol id="icon-medium-play" viewBox="0 0 79 79"><style>.st0{fill:#fff}</style><g id="Medium_Play_Button" transform="translate(.5 .5)"><path class="st0" d="M39 78.5C17.2 78.5-.5 60.8-.5 39S17.2-.5 39-.5 78.5 17.2 78.5 39 60.8 78.5 39 78.5zm0-78C17.8.5.5 17.8.5 39S17.8 77.5 39 77.5 77.5 60.2 77.5 39 60.2.5 39 .5z"/><g id="Polygon_3"><path d="M12.5 0L25 23H0L12.5 0z" fill="none" transform="rotate(90 14.439 40.718)"/><path class="st0" d="M12.5 2.1L1.7 22h21.6L12.5 2.1m0-2.1L25 23H0L12.5 0z" transform="rotate(90 14.439 40.718)"/></g></g>
</symbol>
<symbol id="icon-mini-close" viewBox="0 0 200 200"><circle fill="none" cx="100.068" cy="100.068" r="100.068"/><path d="M100.068 200.137C44.858 200.137 0 155.278 0 100.068S44.858 0 100.068 0c55.211 0 100.068 44.858 100.068 100.068s-44.857 100.069-100.068 100.069zm0-193.236C49 6.901 6.901 49 6.901 100.068c0 51.07 42.098 93.167 93.167 93.167s93.168-42.097 93.168-93.167c0-51.068-42.098-93.167-93.168-93.167z"/><path d="M133.194 71.773l-4.831-4.83-28.295 28.295-28.294-28.295-4.831 4.83 28.294 28.296-28.294 28.295 4.83 4.83 28.295-28.295 28.295 28.295 4.831-4.83-28.296-28.295 28.296-28.296z"/>
</symbol>
<symbol id="icon-mini-forward" viewBox="0 0 29 29"><style>.st1{fill:#fff}</style><g id="Ellipse_2"><circle cx="14.5" cy="14.5" r="14.5" fill="none"/><path class="st1" d="M14.5 29C6.5 29 0 22.5 0 14.5S6.5 0 14.5 0 29 6.5 29 14.5 22.5 29 14.5 29zm0-28C7.1 1 1 7.1 1 14.5S7.1 28 14.5 28 28 21.9 28 14.5 21.9 1 14.5 1z"/></g><path class="st1" d="M16.6 14l-6.3-3.6c-.2-.1-.3-.1-.5 0s-.2.3-.2.4v7.3c0 .2.1.3.2.4.1 0 .2.1.2.1s.2 0 .2-.1l6.3-3.6c.2-.1.2-.3.2-.4s0-.4-.1-.5z"/><path class="st1" d="M20.8 14l-6.3-3.6c-.2-.1-.3-.1-.5 0s-.2.3-.2.4v7.3c0 .2.1.3.2.4.1 0 .2.1.2.1s.2 0 .2-.1l6.3-3.6c.2-.1.2-.3.2-.4s.1-.4-.1-.5z"/>
</symbol>
<symbol id="icon-mini-live" viewBox="0 0 29 29"><style>.st1{fill:#fff}</style><g id="Ellipse_2"><circle cx="14.5" cy="14.5" r="14.5" fill="none"/><path class="st1" d="M14.5 29C6.5 29 0 22.5 0 14.5S6.5 0 14.5 0 29 6.5 29 14.5 22.5 29 14.5 29zm0-28C7.1 1 1 7.1 1 14.5S7.1 28 14.5 28 28 21.9 28 14.5 21.9 1 14.5 1z"/></g><path class="st1" d="M19 14.5c0-2.3-1.8-4.2-4-4.5h-1c-2.2.2-4 2.1-4 4.4 0 2.2 1.5 4 3.6 4.4.3.1.6.1.9.1s.6 0 .9-.1c2.1-.3 3.6-2.1 3.6-4.3z"/>
</symbol>
<symbol id="icon-mini-pause" viewBox="0 0 200 200"><circle fill="none" cx="100" cy="100" r="100"/><path d="M100 200C44.828 200 0 155.172 0 100S44.828 0 100 0s100 44.828 100 100-44.828 100-100 100zm0-193.104C48.965 6.896 6.896 48.965 6.896 100S48.965 193.104 100 193.104s93.104-42.068 93.104-93.104c0-51.035-42.069-93.104-93.104-93.104z"/><path d="M68.429 61.75h18.214v76.5H68.429zm44.928 0h18.214v76.5h-18.214z"/>
</symbol>
<symbol id="icon-mini-play" viewBox="0 0 29 29"><path d="M14.5 0C6.505 0 0 6.505 0 14.5S6.505 29 14.5 29 29 22.495 29 14.5 22.495 0 14.5 0zm0 28C7.056 28 1 21.944 1 14.5S7.056 1 14.5 1 28 7.056 28 14.5 21.944 28 14.5 28z"/><path d="M19.037 13.697l-6.287-3.63a.502.502 0 00-.75.433v7.26a.499.499 0 00.75.433l6.287-3.629a.5.5 0 000-.867z"/>
</symbol>
<symbol id="icon-paypal" viewBox="0 0 54.408 14.501"><path d="M29.973 3.915h-2.036a.588.588 0 00-.487.258l-2.811 4.138-1.191-3.977a.589.589 0 00-.564-.42h-2a.352.352 0 00-.334.467l2.243 6.584-2.11 2.976a.353.353 0 00.288.559h2.035a.589.589 0 00.483-.253l6.774-9.778a.352.352 0 00-.29-.554M16.354 7.86a2.259 2.259 0 01-2.287 1.936 1.57 1.57 0 01-1.678-1.971 2.267 2.267 0 012.271-1.951 1.708 1.708 0 011.351.552 1.744 1.744 0 01.344 1.434m2.825-3.945h-2.025a.353.353 0 00-.349.3l-.089.566-.142-.2a2.886 2.886 0 00-2.394-.851 4.661 4.661 0 00-4.523 4.077 3.827 3.827 0 00.754 3.114 3.169 3.169 0 002.552 1.03 3.878 3.878 0 002.801-1.162l-.09.564a.352.352 0 00.293.4.357.357 0 00.055 0h1.826a.588.588 0 00.581-.5l1.1-6.938a.354.354 0 00-.3-.4.369.369 0 00-.053 0m-12.162.049c-.231 1.519-1.392 1.519-2.514 1.519h-.636l.448-2.836a.352.352 0 01.348-.3h.293c.764 0 1.485 0 1.858.435a1.412 1.412 0 01.2 1.181M6.524-.001H2.291a.588.588 0 00-.581.5L-.001 11.352a.353.353 0 00.294.4.348.348 0 00.055 0h2.021a.589.589 0 00.581-.5l.462-2.928a.588.588 0 01.58-.5h1.339c2.789 0 4.4-1.349 4.817-4.023a3.258 3.258 0 00-.54-2.732A3.925 3.925 0 006.523-.012m45.232.311l-1.74 11.051a.353.353 0 00.349.408h1.747a.588.588 0 00.58-.5L54.404.405a.352.352 0 00-.293-.4.363.363 0 00-.056 0h-1.948a.351.351 0 00-.348.3m-5.214 7.562a2.26 2.26 0 01-2.287 1.936 1.569 1.569 0 01-1.678-1.971 2.267 2.267 0 012.271-1.951 1.708 1.708 0 011.351.553 1.746 1.746 0 01.344 1.434m2.825-3.945h-2.025a.353.353 0 00-.349.3l-.09.566-.142-.2a2.885 2.885 0 00-2.394-.851 4.661 4.661 0 00-4.524 4.077 3.83 3.83 0 00.755 3.114 3.168 3.168 0 002.552 1.03 3.881 3.881 0 002.806-1.16l-.091.564a.352.352 0 00.293.4.358.358 0 00.055 0h1.829a.588.588 0 00.581-.5l1.1-6.938a.353.353 0 00-.3-.4.326.326 0 00-.053 0m-12.162.049c-.231 1.519-1.392 1.519-2.514 1.519h-.638l.447-2.836a.353.353 0 01.349-.3h.293c.764 0 1.485 0 1.858.435a1.415 1.415 0 01.2 1.181M36.719.009h-4.233a.588.588 0 00-.581.5l-1.712 10.853a.352.352 0 00.294.4.348.348 0 00.054 0h2.172a.411.411 0 00.407-.347l.486-3.077a.588.588 0 01.58-.5h1.339c2.788 0 4.4-1.349 4.817-4.023a3.258 3.258 0 00-.54-2.731A3.925 3.925 0 0036.717.003" data-name="Gruppe 2384" fill="#fff"/>
</symbol>
<symbol id="icon-play" viewBox="0 0 58.6 58.6"><style>.st0{fill:#fff}</style><g id="Play_Button" transform="translate(.5 .5)"><path class="st0" d="M28.8 58.1C12.7 58.1-.5 45-.5 28.8S12.7-.5 28.8-.5C45-.5 58.1 12.7 58.1 28.8S45 58.1 28.8 58.1zm0-57.6C13.2.5.5 13.2.5 28.8s12.7 28.3 28.3 28.3 28.3-12.7 28.3-28.3S44.4.5 28.8.5z"/><g id="Polygon_3"><path d="M9.5 0L19 16H0L9.5 0z" fill="none" transform="rotate(90 10.5 29.5)"/><path class="st0" d="M9.5 2L1.8 15h15.5L9.5 2m0-2L19 16H0L9.5 0z" transform="rotate(90 10.5 29.5)"/></g></g>
</symbol>
<symbol id="icon-premium" viewBox="0 0 29 29"><style>.st1{fill:#fff}</style><g id="Group_2735" transform="translate(-805 -2764)"><g id="Group_2734" transform="translate(643 1772)"><g id="Ellipse_2" transform="translate(162 992)"><circle cx="14.5" cy="14.5" r="14.5" fill="none"/><path class="st1" d="M14.5 29C6.5 29 0 22.5 0 14.5S6.5 0 14.5 0 29 6.5 29 14.5 22.5 29 14.5 29zm0-28C7.1 1 1 7.1 1 14.5S7.1 28 14.5 28 28 21.9 28 14.5 21.9 1 14.5 1z"/></g></g></g><path class="st1" d="M15.4 22.7h-.8v-1.4c-1-.1-1.9-.3-2.5-.8s-1.1-1.3-1.3-2.3c0-.2 0-.3-.1-.4v-.4h1.2c0 .4.1.8.2 1.1.1.4.3.7.6.9.2.3.5.5.9.7.3.2.7.3 1.1.3V15c-.5-.1-1-.3-1.4-.4-.4-.2-.8-.4-1.1-.6-.3-.3-.6-.6-.8-1-.2-.4-.3-.9-.3-1.4 0-.5.1-1 .3-1.4.2-.4.5-.8.8-1 .3-.3.7-.5 1.1-.7.4-.1.9-.2 1.4-.2V7.2h.8v1.1c.5 0 .9.1 1.4.2.4.1.8.3 1.1.6.3.3.6.6.7 1 .2.4.3.8.3 1.3h-1.2c0-.3-.1-.6-.2-.9-.1-.3-.3-.5-.5-.7-.2-.2-.5-.3-.7-.4-.3-.1-.6-.2-.9-.2V14c.6.1 1.1.3 1.6.5s.9.4 1.2.7.6.6.8 1.1c.2.4.3 1 .3 1.7 0 .5-.1 1-.3 1.4-.2.4-.5.8-.9 1.1s-.8.5-1.3.7c-.5.2-.9.2-1.4.3v1.2zm-.8-13.4c-.3 0-.7.1-.9.2-.3.1-.6.3-.8.5-.2.2-.4.4-.5.7s-.2.6-.2.9c0 .4.1.7.2 1 .1.3.3.5.5.7.2.2.5.3.8.4l.9.3V9.3zm.8 11.1c.4 0 .7-.1 1.1-.2s.6-.3.9-.5c.3-.2.5-.5.6-.8.1-.3.2-.7.2-1.1 0-.4-.1-.8-.2-1.1s-.3-.5-.6-.7c-.2-.2-.5-.3-.9-.4-.3-.1-.7-.2-1.1-.3v5.1z"/>
</symbol>
<symbol id="icon-purchased" viewBox="0 0 29 29"><style>.st1{fill:#fff}</style><g id="Group_2735" transform="translate(-805 -2764)"><g id="Group_2734" transform="translate(643 1772)"><g id="Ellipse_2" transform="translate(162 992)"><circle cx="14.5" cy="14.5" r="14.5" fill="none"/><path class="st1" d="M14.5 29C6.5 29 0 22.5 0 14.5S6.5 0 14.5 0 29 6.5 29 14.5 22.5 29 14.5 29zm0-28C7.1 1 1 7.1 1 14.5S7.1 28 14.5 28 28 21.9 28 14.5 21.9 1 14.5 1z"/></g></g><path class="st1" d="M817.6 2784.4c-.1 0-.3-.1-.4-.1l-5.1-5.1c-.2-.2-.2-.5 0-.7s.5-.2.7 0l4.7 4.7 8.9-8.9c.2-.2.5-.2.7 0s.2.5 0 .7l-9.2 9.2c-.1.1-.2.2-.3.2z"/></g>
</symbol>
<symbol id="icon-search" viewBox="0 0 43.36 41.35"><defs><style>.cls-1{fill:#f5f5f5}</style></defs><path class="cls-1" d="M25.84 0A17.44 17.44 0 008.33 17.32 17.07 17.07 0 0012.08 28L.3 39.64a1 1 0 00.7 1.71 1 1 0 00.7-.28l11.7-11.58a17.54 17.54 0 0030-12.17A17.44 17.44 0 0025.84 0zm0 32.64a15.43 15.43 0 01-15.51-15.32 15.52 15.52 0 0131 0 15.44 15.44 0 01-15.49 15.32z"/><path class="cls-1" d="M24.84 7.15a1 1 0 000 2 9.29 9.29 0 019.33 9.23 1 1 0 001 1 1 1 0 001-1A11.28 11.28 0 0024.84 7.15z"/>
</symbol>
<symbol id="icon-social-facebook-circle" viewBox="0 0 31 31"><style>.st0{fill:#fff}</style><g id="Group_2778" transform="translate(.5 .5)"><path id="Path_3397" class="st0" d="M13.6 11.5v1.7h-2v2.4h2v6H16v-6h2l.3-2.4H16v-1.5c0-.7.2-1.1 1.2-1.1h1.2V8.5c-.6-.1-1.2-.1-1.8-.1-1.6-.1-2.9 1.1-3 2.6v.5z"/><path class="st0" d="M15 30.5C6.5 30.5-.5 23.5-.5 15S6.5-.5 15-.5s15.5 7 15.5 15.5-7 15.5-15.5 15.5zm0-30C7 .5.5 7 .5 15S7 29.5 15 29.5 29.5 23 29.5 15 23 .5 15 .5z"/></g>
</symbol>
<symbol id="icon-social-facebook" viewBox="25 25 150 150"><path d="M90.968 77.419v10.968H78.064v15.484h12.903v38.709h15.483v-38.709h12.904l1.936-15.484h-14.84V78.71c0-4.517 1.291-7.097 7.742-7.097h7.742V58.064c-3.871-.645-7.742-.645-11.613-.645-10.321-.645-18.708 7.097-19.353 16.774v3.226z"/>
</symbol>
<symbol id="icon-social-instagram-circle" viewBox="0 0 31 31"><style>.st0{fill:#fff}</style><g id="Group_2776" transform="translate(.5 .5)"><path id="Path_3399" class="st0" d="M19.9 8.9h-9.3c-.8 0-1.4.6-1.4 1.4v9.3c0 .8.6 1.4 1.4 1.4h9.3c.8 0 1.4-.6 1.4-1.4v-9.3c0-.7-.6-1.4-1.4-1.4zm-2.3 1.7c0-.2.2-.3.3-.3h1.6c.2 0 .3.2.3.3v1.6c0 .2-.2.3-.3.3h-1.6c-.2 0-.3-.2-.3-.3v-1.6zm-2.4 2.1c1.3 0 2.3 1.1 2.3 2.3s-1.1 2.3-2.3 2.3c-1.3 0-2.3-1-2.3-2.3 0-1.3 1-2.3 2.3-2.3zm4.8 6.6c0 .2-.2.3-.3.3h-8.8c-.2 0-.3-.2-.3-.3V14h1.1c-.1.3-.1.6-.1 1 0 2 1.7 3.7 3.7 3.7S19 17 19 15c0-.3 0-.7-.1-1H20v5.3z"/><path class="st0" d="M15 30.5C6.5 30.5-.5 23.5-.5 15S6.5-.5 15-.5s15.5 7 15.5 15.5-7 15.5-15.5 15.5zm0-30C7 .5.5 7 .5 15S7 29.5 15 29.5 29.5 23 29.5 15 23 .5 15 .5z"/></g>
</symbol>
<symbol id="icon-social-instagram" viewBox="25 25 150 150"><path d="M131.613 60.645h-60c-5.161 0-9.032 3.871-9.032 9.032v60c0 5.161 3.871 9.031 9.032 9.031h60c5.161 0 9.031-3.87 9.031-9.031v-60c.001-4.516-3.87-9.032-9.031-9.032zm-14.839 10.968c0-1.29 1.29-1.936 1.935-1.936h10.323c1.29 0 1.936 1.291 1.936 1.936v10.323c0 1.29-1.29 1.936-1.936 1.936h-10.323c-1.289 0-1.935-1.291-1.935-1.936V71.613zm-15.483 13.548c8.387 0 14.838 7.097 14.838 14.839s-7.097 14.839-14.838 14.839c-8.388 0-14.839-6.452-14.839-14.839s6.451-14.839 14.839-14.839zm30.967 42.581c0 1.29-1.29 1.936-1.936 1.936H73.548c-1.29 0-1.936-1.291-1.936-1.936V93.548h7.097c-.645 1.936-.645 3.871-.645 6.452 0 12.903 10.968 23.871 23.871 23.871s23.871-10.968 23.871-23.871c0-1.936 0-4.516-.646-6.452h7.097v34.194z"/>
</symbol>
<symbol id="icon-social-twitter-circle" viewBox="0 0 31 31"><style>.st0{fill:#fff}</style><g id="Group_2777" transform="translate(.5 .5)"><path id="Path_3398" class="st0" d="M20.4 10c-.5.3-1.1.5-1.7.6-1-1.1-2.7-1.1-3.7-.1-.7.6-1 1.6-.8 2.5-2.1-.1-4.1-1.1-5.4-2.7-.7 1.2-.3 2.7.8 3.5-.4 0-.8-.1-1.2-.3 0 1.3.9 2.3 2.1 2.6-.4.1-.8.1-1.2 0 .3 1.1 1.3 1.8 2.5 1.8-.9.7-2.1 1.1-3.3 1.1h-.6c3.5 2.2 8.1 1.2 10.3-2.3.8-1.2 1.2-2.6 1.2-4v-.3c.5-.4 1-.8 1.3-1.4-.5.2-1 .4-1.5.4.6-.3 1-.8 1.2-1.4z"/><path class="st0" d="M15 30.5C6.5 30.5-.5 23.5-.5 15S6.5-.5 15-.5s15.5 7 15.5 15.5-7 15.5-15.5 15.5zm0-30C7 .5.5 7 .5 15S7 29.5 15 29.5 29.5 23 29.5 15 23 .5 15 .5z"/></g>
</symbol>
<symbol id="icon-social-twitter" viewBox="25 25 150 150"><path d="M134.839 67.742c-3.226 1.935-7.097 3.226-10.968 3.871-6.451-7.097-17.42-7.097-23.871-.645-4.516 3.871-6.452 10.323-5.161 16.129C81.291 86.452 68.387 80 60 69.677c-4.516 7.742-1.936 17.419 5.161 22.581-2.581 0-5.161-.646-7.742-1.936 0 8.387 5.806 14.838 13.548 16.774a15.706 15.706 0 01-7.742 0c1.936 7.097 8.387 11.612 16.129 11.612-5.807 4.517-13.548 7.098-21.291 7.098h-3.871c22.581 14.193 52.258 7.742 66.451-14.839 5.162-7.742 7.742-16.774 7.742-25.807v-1.936c3.227-2.581 6.452-5.161 8.388-9.032-3.226 1.291-6.452 2.581-9.678 2.581 3.873-1.934 6.454-5.16 7.744-9.031z"/>
</symbol>
<symbol id="icon-video-camera" viewBox="0 0 18 11.7"><g data-name="Union 16" fill="none" stroke-linejoin="round"><path d="M1.001 11.701a1 1 0 01-1-1v-9.7a1 1 0 011-1h9.7a1 1 0 011 1v1.924L16.58.66a1 1 0 011.421.909v8.566a1 1 0 01-1.421.9l-4.879-2.263v1.925a1 1 0 01-1 1z"/><path d="M10.7 10.7V8.775a.998.998 0 011.421-.907L17 10.131V1.567h-.001L12.121 3.83a.993.993 0 01-.959-.064.998.998 0 01-.462-.843V1H1v9.7h9.7m0 1H1a1 1 0 01-1-1V1a1 1 0 011-1h9.7a1 1 0 011 1v1.924L16.58.659a1.003 1.003 0 011.42.91v8.566a1 1 0 01-1.42.903L11.7 8.775V10.7a1 1 0 01-1 1z" fill="#f5f5f5"/></g>
</symbol>
<symbol id="icon-video-exit" viewBox="0 0 29 29"><style>.st1{fill:#f5f5f5}</style><circle cx="14.5" cy="14.5" r="14.5" fill="none"/><path class="st1" d="M14.5 0C6.5 0 0 6.5 0 14.5S6.5 29 14.5 29 29 22.5 29 14.5 22.5 0 14.5 0zm0 27.9c-7.4 0-13.4-6-13.4-13.4s6-13.4 13.4-13.4 13.4 6 13.4 13.4-6 13.4-13.4 13.4z"/><path class="st1" d="M20.5 9.1c-.2-.2-.5-.2-.7 0l-5 5-4.9-5c-.2-.1-.6-.1-.8 0s-.1.6 0 .8l4.9 4.9-4.9 4.9c-.2.2-.2.5 0 .7.1.1.2.1.4.1s.3 0 .4-.1l4.9-4.9 5 5c.1.1.2.1.4.1s.3 0 .4-.1c.2-.2.2-.5 0-.7l-5-5 5-5c.1-.1.1-.5-.1-.7z"/>
</symbol>
<symbol id="icon-video-fullscreen" viewBox="0 0 29.2 29.2"><path d="M10 28H1.2v-8.7c0-.3-.3-.6-.6-.6s-.6.2-.6.6v9.3c0 .3.3.6.6.6H10c.3 0 .6-.3.6-.6s-.3-.6-.6-.6zm0-28H.6C.3 0 0 .3 0 .6V10c0 .3.3.6.6.6s.6-.3.6-.6V1.2H10c.3 0 .6-.3.6-.6S10.3 0 10 0zm18.6 0h-9.3c-.3 0-.6.3-.6.6s.3.6.6.6H28V10c0 .3.3.6.6.6s.6-.3.6-.6V.6c0-.3-.2-.6-.6-.6zm0 18.7c-.3 0-.6.3-.6.6V28h-8.7c-.3 0-.6.3-.6.6s.3.6.6.6h9.3c.3 0 .6-.3.6-.6v-9.3c0-.4-.2-.6-.6-.6z" fill="#f5f5f5"/>
</symbol>
<symbol id="icon-video-mute" viewBox="0 0 200 200"><path fill="#F5F5F5" d="M196.686 96.685h-33.149V34.254c0-4.972-3.868-8.287-8.288-8.287-1.656 0-2.762.553-4.42 1.105L96.685 58.563H44.751c-6.078 0-11.05 4.973-11.05 11.05v27.072H3.315C1.657 96.685 0 98.343 0 100s1.657 3.314 3.315 3.314h30.387v27.072c0 6.077 4.972 11.05 11.05 11.05h51.934l54.143 31.491c1.105.553 2.764 1.105 4.42 1.105 4.42 0 8.288-3.314 8.288-8.287v-62.432h33.149c1.656 0 3.314-1.657 3.314-3.314s-1.105-3.314-3.314-3.314zM40.884 69.613c0-2.21 1.658-3.867 3.868-3.867h51.934c1.105 0 2.21-.553 3.315-1.105l54.696-31.492h.552c.553 0 1.658.552 1.658 1.657v62.431H40.884V69.613zm116.022 96.133c0 1.104-1.105 1.657-1.658 1.657h-.552l-54.144-31.491c-1.105-.553-2.21-1.105-3.315-1.105H44.751c-2.21 0-3.868-1.657-3.868-3.867v-27.625h116.022v62.431z"/>
</symbol>
<symbol id="icon-video-pause" viewBox="0 0 25 26"><path d="M9 0H1C.4 0 0 .4 0 1v24c0 .6.4 1 1 1h8c.6 0 1-.4 1-1V1c0-.6-.4-1-1-1zm-.3 24.6H1.3V1.3h7.3v23.3zM24 0h-8c-.6 0-1 .4-1 1v24c0 .6.4 1 1 1h8c.6 0 1-.4 1-1V1c0-.6-.4-1-1-1zm-.3 24.6h-7.3V1.3h7.3v23.3z" fill="#f5f5f5"/>
</symbol>
<symbol id="icon-video-play" viewBox="0 0 25 29"><g data-name="Polygon 36" fill="none" stroke-linejoin="round"><path d="M22.763 13.2a1.5 1.5 0 010 2.6L2.253 27.7A1.5 1.5 0 010 26.4V2.6a1.5 1.5 0 012.253-1.3z"/><path d="M22.26 14.5a.236.236 0 00-.124-.216L1.626 2.388a.235.235 0 00-.25 0 .235.235 0 00-.126.216v23.792c0 .096.042.169.125.217a.235.235 0 00.25 0l20.51-11.897a.236.236 0 00.125-.216m1.25 0c0 .504-.249 1.009-.747 1.298L2.253 27.694A1.5 1.5 0 010 26.396V2.604a1.5 1.5 0 012.253-1.298l20.51 11.896c.498.29.747.794.747 1.298z" fill="#f5f5f5"/></g>
</symbol>
<symbol id="icon-video-screen" viewBox="0 0 39 29"><path d="M38.5 0H.5C.2 0 0 .2 0 .5v28c0 .3.2.5.5.5h38c.3 0 .5-.2.5-.5V.5c0-.3-.2-.5-.5-.5zM38 15H18V1h20v14zM1 28V1h16v14.5c0 .3.2.5.5.5H38v12H1z" fill="#f5f5f5"/>
</symbol>
<symbol id="icon-video-stop" viewBox="0 0 200 200"><path fill="#F5F5F5" d="M188.461 0H11.539C6.923 0 3.846 3.077 3.846 7.692v184.615c0 4.615 3.077 7.692 7.692 7.692H188.46c4.616 0 7.693-3.077 7.693-7.692V7.692C196.154 3.077 193.077 0 188.461 0zM13.846 189.23V10h172.308v179.23H13.846z"/>
</symbol>
<symbol id="icon-video-volume" viewBox="0 0 23.509 26.797"><g data-name="Union 30" fill="none" stroke-linejoin="round"><path d="M21.257 26.592l-9.817-5.694H2.011a2 2 0 01-2-2v-5.321a1.517 1.517 0 010-.358V7.898a2 2 0 012-2h9.429L21.257.204a1.5 1.5 0 012.252 1.3v23.79a1.5 1.5 0 01-1.5 1.5 1.5 1.5 0 01-.752-.202z"/><path d="M22.007 25.546c.082 0 .252-.061.252-.252V1.504c0-.191-.173-.254-.251-.254a.243.243 0 00-.124.036L12.067 6.98c-.19.11-.407.169-.627.169H2.01a.75.75 0 00-.749.749v5.321c0 .05-.003.099-.009.148a.276.276 0 000 .063c.006.05.009.099.009.148v5.321a.75.75 0 00.75.749h9.429c.22 0 .436.059.627.169l9.814 5.692a.246.246 0 00.126.037m0 1.25c-.25 0-.508-.064-.75-.204l-9.817-5.694H2.01a1.999 1.999 0 01-1.999-1.999v-5.321a1.517 1.517 0 010-.359V7.898a2 2 0 012-1.999h9.429L21.257.205c.243-.141.5-.205.75-.205.784 0 1.502.627 1.502 1.503v23.79c0 .877-.718 1.503-1.502 1.503z" fill="#f5f5f5"/></g>
</symbol>
<symbol id="icon-visa" viewBox="0 0 40.626 13.119"><path data-name="Path 3515" d="M21.011 4.194c-.023 1.828 1.629 2.847 2.873 3.454 1.279.622 1.708 1.021 1.7 1.577-.01.852-1.02 1.227-1.965 1.242a6.857 6.857 0 01-3.371-.8l-.594 2.78a9.886 9.886 0 003.65.673c3.448 0 5.7-1.7 5.715-4.341.013-3.349-4.632-3.534-4.6-5.031.011-.454.444-.938 1.393-1.061a6.178 6.178 0 013.237.567l.577-2.69A8.8 8.8 0 0026.554 0c-3.245 0-5.527 1.725-5.546 4.194M35.171.232a1.5 1.5 0 00-1.4.931l-4.925 11.759h3.445l.685-1.895h4.21l.4 1.895h3.037L37.973.232h-2.8m.482 3.428l.994 4.765h-2.723l1.728-4.765M16.833.232l-2.716 12.69H17.4L20.115.232h-3.282m-4.856 0L8.56 8.869 7.177 1.525A1.53 1.53 0 005.664.232H.078L0 .6a13.666 13.666 0 013.239 1.08 1.389 1.389 0 01.779 1.115l2.618 10.127h3.469L15.423.232h-3.447" fill="#fff"/>
</symbol></svg>