<?xml version="1.0" encoding="utf-8"?>
<!-- Generator: Adobe Illustrator 24.1.0, SVG Export Plug-In . SVG Version: 6.00 Build 0)  -->
<svg version="1.1" id="Layer_1" xmlns="http://www.w3.org/2000/svg" xmlns:xlink="http://www.w3.org/1999/xlink" x="0px" y="0px"
	 viewBox="0 0 64 64" style="enable-background:new 0 0 64 64;" xml:space="preserve">
<style type="text/css">
	.st0{fill:#1E1E1E;}
</style>
<g>
	<polygon class="st0" points="15.2,16.3 15.2,42.7 20.7,45.9 20.7,19.5 	"/>
	<polygon class="st0" points="15.2,42.7 5.6,52.3 5.6,23.6 0,20.4 0,56.1 6.1,59.6 15.2,50.5 	"/>
	<polygon class="st0" points="42.3,9 29.6,43.8 29.6,24.6 24.1,21.4 24.1,47.8 27.4,49.8 27.4,49.8 32.3,52.6 48.8,7.2 	"/>
	<polygon class="st0" points="54.4,31.9 54.4,21.9 59.5,20.6 59.5,15 54.4,16.4 54.4,11.3 59.5,9.9 59.5,4.4 54.4,5.8 54.4,5.8 
		48.8,7.2 48.8,35.7 54.9,39.2 64,30.1 64,22.3 	"/>
</g>
</svg>
