<svg xmlns="http://www.w3.org/2000/svg" width="88.864" height="65.55" viewBox="0 0 88.864 65.55">
  <g id="Group_2792" data-name="Group 2792" transform="translate(-220 -735)">
    <path id="Path_3483" data-name="Path 3483" d="M292.345,746.517,291,758.929l1.912-.657,11.6,7.89c-.4.2-.81.4-1.211.595L289.427,759.5l-.389-12.525c1.077-.162,2.184-.314,3.307-.453m-6.711,1.048c-1.125.224-2.192.47-3.191.743l-.146,14.244,14.4,7.355c.536-.255,1.088-.513,1.651-.781l-12.489-8.217-1.991.889,1.766-14.234m3.119-.549c-.977.153-1.928.316-2.844.495l-.051,13.4,14.281,7.371c.467-.222.945-.45,1.424-.68l-12.137-8.1-1.994.7,1.322-13.182m9.537-1.147c-.876.086-1.756.174-2.632.27l.626,11.06-1.913.617.995-11.644q-1.378.147-2.737.314l.287,11.789,13.488,6.944q.579-.294,1.161-.593L296.347,757.2l12.7,6.649c.379-.2.756-.4,1.134-.608L299.591,756.1l-1.933.658.633-10.9m3.043-.3c-.9.086-1.813.173-2.729.263l.986,10.267L311.53,762.5c.338-.191.678-.384,1.015-.577L302.457,755.1l-1.662.59.54-10.121m-35.169,10.22c-1.7,1.047-3.092,1.985-4.07,2.667l-.42,16.99s-3.266,2.343-4.5,3.38-3.477,3.15-3.477,3.15v4.2a50.551,50.551,0,0,1,4.624-5.547c1.855-1.74,4.252-3.7,4.252-3.7l-.438-.634,15.155,6.852c.243-.236.833-.8,1.684-1.578l-13.14-8.607-2.049,1.641,2.374-18.805m4.135-2.4c-1.354.735-2.611,1.466-3.746,2.159l-.714,17.4,15.366,6.647c.554-.47,1.144-.963,1.767-1.466l-12.884-8.365-2.054,1.5,2.265-17.874m34.108-8.116c-.912.089-1.845.177-2.788.267l.837,9.559,11.385,6.059c.364-.215.727-.434,1.084-.655l-9.518-6.4-1.785.635.784-9.461m-22.266,3.112c-.074.023-.153.043-.227.064-1.114.322-2.22.7-3.311,1.108l-.357,15.1,14.774,7q.846-.412,1.78-.858l-12.5-8.252-2.13,1.081,1.974-15.242m-3.8,1.27c-1.3.495-2.576,1.036-3.809,1.606l-.369,15.807-2.079,1.331,2.165-17c-1.273.6-2.5,1.216-3.663,1.841l-.5,16.532,14.945,6.76c.545-.408,1.1-.811,1.666-1.205l-12.535-8.213,14.71,6.78c.585-.363,1.17-.7,1.749-1.013.036-.018.075-.038.11-.058l-12.489-8.158-2.1,1.205,2.2-16.212m44.052-8.24c-.768.318-1.576.628-2.416.925l.021,5.473,7.064,1.525c.394-.595.767-1.193,1.119-1.785l-5.36-1.512-1.38.893.952-5.519m-2.684,1.022c-.822.285-1.683.559-2.571.816l-.054,6.072,8.162,2.514c.333-.421.654-.85.964-1.276L320,747.819l-1.424.746,1.137-6.122m7.78-3.478c-.656.363-1.366.739-2.127,1.112l-.04,4.068-1.374,1.081,1.167-5.03q-1.165.566-2.481,1.123l.183,4.73,6.023.356c.333-.6.649-1.2.94-1.789L325.4,744.1l4.92-.613c.266-.565.508-1.116.733-1.65l-3.342.212-1.022.932.8-4.015M316.9,743.326q-.588.168-1.2.328c-.472.121-.978.233-1.517.342l-.024,6.673-.011.005,9.193,3.37c.32-.338.63-.683.932-1.027l-7.192-3.688-1.431.672,1.248-6.676M333.355,735s-.4.358-1.165.935l-.315,1.482-.628.789.341-1.829c-.4.287-.871.612-1.4.961l-.333,2.513-.691.768.66-3.047c-.619.4-1.319.819-2.089,1.256l-.016,3.22,3.822-1.391q.3-.775.551-1.474l-1.975.389,2.3-1.333c.664-1.978.941-3.24.941-3.24m-25.8,9.951c-.92.1-1.872.2-2.842.3l.692,8.858,10.954,5.5c.369-.237.734-.476,1.092-.716l-8.973-5.935-1.765.675.843-8.68m3.675,6.938-.015-.009.018.007h0m-.272-7.359c-.994.141-2.042.268-3.138.389l.655,8.037,10.207,5.089c.253-.178.5-.356.747-.537.134-.1.268-.2.4-.3l-8.6-5.325-1.529.6,1.258-7.953m3.188,6.146-.007,0,.007,0h0m-.247-6.625c-.815.158-1.7.3-2.638.436l.016,7.382-.044.019,9.933,4.24c.337-.29.665-.588.987-.892l-8.007-4.561-1.479.64,1.232-7.264" transform="translate(-28.818)" fill="#f5f5f5"/>
    <path id="Path_3484" data-name="Path 3484" d="M287.848,1120.484H284.27v-.862a.782.782,0,1,0-1.563,0v4.536a.782.782,0,1,0,1.563,0v-1.036h3.578c0,2.1-.687,3.793-4.36,3.793-3.743,0-4.47-1.43-4.482-5.027,0-3.883.954-5.025,4.467-5.025,3.609,0,4.375,1.433,4.375,3.62m-31.359,6.138c2.384,0,3.07-1.246,3.07-2.437,0-1.62-1.023-2.188-2.505-2.387,1.387-.238,2.317-.8,2.317-2.346,0-1.5-.821-2.3-3.54-2.3l-5.035.026h-.741v.587c.055.007.113.014.174.027a.907.907,0,0,1,.265.1.6.6,0,0,1,.3.509v8.222h5.693Zm-1.371-3.869c.443,0,.753.238.753.821s-.283,1.088-.821,1.088h-.728v-1.909Zm-.8-3.635h.728a.888.888,0,0,1,0,1.752h-.728v-1.752m6.7,7.5h6.759v-2.253h-3.126v-7.215l-3.633.031h-.752v.585c.055.009.113.016.172.028a.924.924,0,0,1,.264.1.62.62,0,0,1,.309.583l.006.588v7.557m-29.915,0h6.759v-2.253H234.74v-7.215l-3.634.031h-.752v.585c.055.009.113.016.172.028a.915.915,0,0,1,.263.1.621.621,0,0,1,.308.583l.007.588v7.557m7.828,0h6.759v-2.253h-3.124v-7.215l-3.635.031h-.75v.585c.056.009.113.016.174.028a.961.961,0,0,1,.264.1.625.625,0,0,1,.306.583l.006.588v7.557m69.7-6.9c0-1.574-.779-2.938-4.283-2.938-2.792,0-4.269,1-4.269,3.315,0,3.517,5.117,2.129,5.117,4.26a.82.82,0,0,1-.848.834.6.6,0,0,1-.6-.349,2.394,2.394,0,0,1-.153-.917h-3.625c-.165,2.762,2.271,3.074,4.638,3.074,2.341,0,4.255-.8,4.255-3.343,0-3.491-5.143-2.427-5.143-4.218a.683.683,0,0,1,.656-.714c.386,0,.6.1.709.268a1.369,1.369,0,0,1,.136.729h3.409m-34.3,3.589h-1.441l.741-4.2.7,4.2Zm-5.748,3.313h3.741l.272-1.483h1.991l.27,1.483h3.716l-2.478-9.468h-5.875v.588c.054.007.113.016.173.028a.647.647,0,0,1,.212.078c.164.094.231.284.171.576l-2.192,8.2m-42.842-3.312h-1.439l.74-4.2.7,4.2ZM220,1126.621h3.741l.271-1.483H226l.269,1.483h3.716l-2.476-9.468h-5.876v.588c.056.007.112.016.172.028a.627.627,0,0,1,.211.078c.166.094.231.284.172.576l-2.192,8.2m68.452-9.512v.6c.054.006.113.016.172.026a.883.883,0,0,1,.265.1.621.621,0,0,1,.307.578l.013.583v7.567h3.636v-2.734l.784-.777,2.039,3.514h3.849L296,1120.712l3.673-3.608h-4.248l-2.589,2.627V1117.1l-4.388.014" transform="translate(0 -326.448)" fill="#f5f5f5"/>
  </g>
</svg>
