<svg id="Group_2786" data-name="Group 2786" xmlns="http://www.w3.org/2000/svg" width="141.628" height="94.233" viewBox="0 0 141.628 94.233">
  <g id="Group_2785" data-name="Group 2785" transform="translate(0 0)">
    <g id="Group_2784" data-name="Group 2784" transform="translate(0)">
      <path id="Path_3462" data-name="Path 3462" d="M543.884,361.987H537.7a4.136,4.136,0,0,0-.9-2.153,4.646,4.646,0,0,0-3.346-1,4.994,4.994,0,0,0-3.195.767,1.981,1.981,0,0,0-.683,1.577c0,.936,1.3,1.683,3.878,2.259a61.419,61.419,0,0,1,6.351,1.64c.341.129.639.235.853.341,2.622,1.236,3.921,3.114,3.921,5.628a7.13,7.13,0,0,1-3.815,6.712c-.32.172-.618.32-.959.47a14.432,14.432,0,0,1-5.71,1.065,15.668,15.668,0,0,1-7.8-1.706,7.365,7.365,0,0,1-2.8-2.733,7.689,7.689,0,0,1-.931-3.851h6.478a3.064,3.064,0,0,0,1.194,2.579,6.652,6.652,0,0,0,4.027.939,4.858,4.858,0,0,0,3.2-.9,2,2,0,0,0,.809-1.578c0-1-1.276-1.788-3.815-2.343a41.55,41.55,0,0,1-7.159-1.941c-2.6-1.214-3.878-3.088-3.878-5.69a7.439,7.439,0,0,1,2.024-5.3c1.705-1.811,4.261-2.707,7.651-2.707a15.99,15.99,0,0,1,6.712,1.194,2.325,2.325,0,0,1,.406.215,6.748,6.748,0,0,1,2.743,2.622A7.81,7.81,0,0,1,543.884,361.987Z" transform="translate(-402.96 -285.42)" fill="#f5f5f5"/>
      <path id="Path_3463" data-name="Path 3463" d="M423.706,213.832l17.5,29.153H413.095l-16.707-27.853L383.73,194.056l12.657-7.608,7.969-4.794Z" transform="translate(-319.394 -181.654)" fill="#f5f5f5"/>
      <path id="Path_3464" data-name="Path 3464" d="M477.8,367.413v11.956h-5.819v-1.322a12.448,12.448,0,0,1-6.819,2.026H465.1a12.659,12.659,0,0,1,0-25.317h.065a12.473,12.473,0,0,1,6.819,2.023v-1.385H477.8Zm-5.819,1.323v-2.642a6.971,6.971,0,0,0-6.819-5.627H465.1a6.959,6.959,0,0,0,0,13.917h.065A6.989,6.989,0,0,0,471.983,368.735Z" transform="translate(-360.787 -285.839)" fill="#f5f5f5"/>
      <path id="Path_3465" data-name="Path 3465" d="M409.183,355.945V367.9h-5.817V366.58a12.5,12.5,0,0,1-6.82,2.026h-.063a12.659,12.659,0,0,1,0-25.317h.063a12.525,12.525,0,0,1,6.82,2.023V335.7h5.817Zm-5.817,1.323v-2.642a6.973,6.973,0,0,0-6.82-5.627h-.063a6.958,6.958,0,0,0,0,13.917h.063A6.991,6.991,0,0,0,403.367,357.268Z" transform="translate(-319.489 -274.372)" fill="#f5f5f5"/>
      <path id="Path_3466" data-name="Path 3466" d="M358.824,264.5l6.861,11.467H337.6L322,250.015l-.681-1.131.681-.4,19.968-12.022Z" transform="translate(-281.83 -214.64)" fill="#f5f5f5"/>
      <rect id="Rectangle_1755" data-name="Rectangle 1755" width="6.329" height="24.614" transform="translate(55.79 68.916)" fill="#f5f5f5"/>
      <rect id="Rectangle_1756" data-name="Rectangle 1756" width="6.329" height="5.561" transform="translate(55.79 61.457)" fill="#f5f5f5"/>
      <path id="Path_3467" data-name="Path 3467" d="M316.71,355.945V367.9h-5.816V366.58a12.566,12.566,0,0,1-6.841,2.026h-.063a12.659,12.659,0,0,1,0-25.317h.063a12.59,12.59,0,0,1,6.841,2.023V335.7h5.816Zm-5.816,1.323v-2.642A6.978,6.978,0,0,0,304.053,349h-.063a6.958,6.958,0,0,0,0,13.917h.063A7,7,0,0,0,310.894,357.268Z" transform="translate(-263.82 -274.372)" fill="#f5f5f5"/>
      <path id="Path_3468" data-name="Path 3468" d="M284.466,299.4,290.219,309H262.111l-3.154-5.264,20.649-12.4Z" transform="translate(-244.296 -247.664)" fill="#f5f5f5"/>
      <path id="Path_3469" data-name="Path 3469" d="M247.427,367.413v11.956H241.61v-1.322a12.578,12.578,0,0,1-6.841,2.026H234.7a12.659,12.659,0,0,1,0-25.317h.066a12.6,12.6,0,0,1,6.841,2.023v-1.385h5.816Zm-5.816,1.323v-2.642a6.977,6.977,0,0,0-6.841-5.627H234.7a6.959,6.959,0,0,0,0,13.917h.066A7,7,0,0,0,241.61,368.735Z" transform="translate(-222.132 -285.839)" fill="#f5f5f5"/>
    </g>
  </g>
</svg>
