<svg xmlns="http://www.w3.org/2000/svg" width="186.914" height="74.73" viewBox="0 0 186.914 74.73">
  <g id="Group_2783" data-name="Group 2783" transform="translate(-114.395 -206.767)">
    <g id="Group_2782" data-name="Group 2782" transform="translate(114.395 206.767)">
      <path id="Path_3456" data-name="Path 3456" d="M364.2,206.767a2.912,2.912,0,0,1,2.913,2.914l-.007,70.472a16.808,16.808,0,0,1-7.586,1.344c-3.749,0-9.149-.595-12.561-3.021a16.347,16.347,0,0,1-18.937,0c-3.42,2.425-8.847,3.021-12.6,3.021a16.738,16.738,0,0,1-7.5-1.307V209.681a2.914,2.914,0,0,1,2.917-2.914Zm-54.119,2.914v69.048a17.107,17.107,0,0,0,5.343.612c4.393,0,9.13-.653,12.618-3.679a13.986,13.986,0,0,0,18.907,0c3.474,3.03,8.184,3.679,12.572,3.679a16.951,16.951,0,0,0,5.425-.643l.009-69.017a.756.756,0,0,0-.754-.756H310.833a.756.756,0,0,0-.756.756" transform="translate(-180.195 -206.767)" fill="#f5f5f5"/>
      <path id="Path_3457" data-name="Path 3457" d="M339.44,267.126V251.138a3.57,3.57,0,0,1-3.056-3.533c0-.174.014-.3.014-.3a.7.7,0,0,0-.1-.408,1.763,1.763,0,0,0-.665-.44l-11.755-4.511-.477-.184a2.86,2.86,0,0,0-1.1-.257,1.315,1.315,0,0,0-.795.319,3.569,3.569,0,1,1,.886-2.342,1.322,1.322,0,0,0,.381.791,2.82,2.82,0,0,0,1,.546l.463.179,11.618,4.459.141.055a1.8,1.8,0,0,0,.787.118.28.28,0,0,0,.088-.032,1.652,1.652,0,0,0-.447-.706l-9.058-8.748-.368-.355a2.773,2.773,0,0,0-.905-.665,1.357,1.357,0,0,0-.862-.019,3.562,3.562,0,1,1,1.734-1.807,1.313,1.313,0,0,0,.044.876,2.832,2.832,0,0,0,.706.892l.358.348,8.952,8.642.108.106a1.7,1.7,0,0,0,.675.412.234.234,0,0,0,.1.009,1.714,1.714,0,0,0-.139-.826l-4.92-11.59-.2-.47a2.723,2.723,0,0,0-.577-.968,1.35,1.35,0,0,0-.782-.354,3.564,3.564,0,1,1,2.3-.987,1.356,1.356,0,0,0-.3.827,2.837,2.837,0,0,0,.3,1.1l.2.458,4.857,11.453.063.139a1.68,1.68,0,0,0,.461.645.273.273,0,0,0,.085.047,1.709,1.709,0,0,0,.194-.815v-13.1a2.817,2.817,0,0,0-.151-1.115,1.4,1.4,0,0,0-.581-.633,3.564,3.564,0,1,1,2.5-.007,1.334,1.334,0,0,0-.6.64,2.874,2.874,0,0,0-.15,1.131v13.087a1.71,1.71,0,0,0,.17.777.083.083,0,0,0,.1-.009,1.666,1.666,0,0,0,.459-.645l.061-.139,4.861-11.453.193-.458a2.782,2.782,0,0,0,.3-1.1,1.348,1.348,0,0,0-.3-.827,3.558,3.558,0,1,1,2.3.987,1.358,1.358,0,0,0-.782.354,2.748,2.748,0,0,0-.576.968l-.2.47-4.917,11.59a1.753,1.753,0,0,0-.149.782.089.089,0,0,0,.106.035,1.7,1.7,0,0,0,.678-.412l.108-.106,8.951-8.642.359-.348a2.832,2.832,0,0,0,.706-.892,1.312,1.312,0,0,0,.042-.876,3.561,3.561,0,1,1,1.732,1.807,1.343,1.343,0,0,0-.858.019,2.76,2.76,0,0,0-.907.665l-.366.355-9.06,8.748a1.7,1.7,0,0,0-.439.661c.021.061.052.071.082.077a1.78,1.78,0,0,0,.784-.118l.144-.055L355.663,241l.463-.179a2.829,2.829,0,0,0,1-.546,1.3,1.3,0,0,0,.378-.791,3.561,3.561,0,1,1,.89,2.342,1.313,1.313,0,0,0-.8-.319,2.85,2.85,0,0,0-1.093.257l-.478.184-11.757,4.511a1.766,1.766,0,0,0-.661.44.773.773,0,0,0-.1.484c.005.123,0,.149,0,.149v.077a3.571,3.571,0,0,1-3.052,3.533v15.988Z" transform="translate(-182.691 -211.767)" fill="#f5f5f5"/>
      <path id="Path_3458" data-name="Path 3458" d="M341.786,268.616a18.961,18.961,0,0,1,12.323-9.705c3.182-.624,7.5-.841,9.7,2.062-7.666,1.188-15.087,4.27-22.02,7.643m-3.122.719c-5.277,2.06-11.927,1.206-17-1.009-2.433-1.212-6.36-3.5-5.118-6.793,7.683,1.36,15.109,4.454,22.119,7.8m.218-.719c-6.94-3.373-14.358-6.455-22.026-7.643,2.2-2.9,6.517-2.686,9.7-2.062a18.979,18.979,0,0,1,12.326,9.705m3.12.719c7-3.349,14.431-6.443,22.117-7.8,1.24,3.293-2.685,5.581-5.118,6.793-5.075,2.215-11.725,3.07-17,1.009" transform="translate(-183.049 -224.364)" fill="#f5f5f5"/>
      <path id="Path_3459" data-name="Path 3459" d="M347.763,289.26a7.652,7.652,0,0,0,1.686-2,7.694,7.694,0,0,0,1.682,2,12.591,12.591,0,0,0,7.794,2.822,12.988,12.988,0,0,0,5.722-1.426V293.4a15.439,15.439,0,0,1-5.722,1.181,15.137,15.137,0,0,1-9.479-3.471,14.724,14.724,0,0,1-18.992,0,14.632,14.632,0,0,1-15.2,2.3V290.67a12.9,12.9,0,0,0,5.682,1.416,12.706,12.706,0,0,0,7.832-2.825,7.669,7.669,0,0,0,1.684-2,7.733,7.733,0,0,0,1.682,2,12.221,12.221,0,0,0,15.626,0m16.884,12.818a15.872,15.872,0,0,1-5.722,1.143,15.7,15.7,0,0,1-9.479-3.33,15.2,15.2,0,0,1-18.992,0,15.083,15.083,0,0,1-15.2,2.194v-2.673a14.213,14.213,0,0,0,5.682,1.221,14.77,14.77,0,0,0,9.514-3.625,14.252,14.252,0,0,0,18.992,0,14.652,14.652,0,0,0,9.479,3.625,14.347,14.347,0,0,0,5.722-1.232Zm0-4.39a15.952,15.952,0,0,1-5.722,1.141,15.709,15.709,0,0,1-9.479-3.328,15.214,15.214,0,0,1-18.992,0,15.112,15.112,0,0,1-15.2,2.2v-2.678a14.157,14.157,0,0,0,5.682,1.221,14.761,14.761,0,0,0,9.514-3.627,14.246,14.246,0,0,0,18.992,0,14.654,14.654,0,0,0,9.479,3.627,14.345,14.345,0,0,0,5.722-1.23Z" transform="translate(-182.691 -234.137)" fill="#f5f5f5"/>
      <path id="Path_3460" data-name="Path 3460" d="M114.4,245.984l8.194-21.6h4.872l8.075,21.6h-4.929l-1.635-4.809H120.9l-1.694,4.809Zm10.554-16.275-2.813,7.924h5.6l-2.723-7.924Zm41.075,6.139h-4.2a2.927,2.927,0,0,0-3.177-2.689c-2.754,0-3.661,2.782-3.661,5.079,0,2.239.879,4.931,3.571,4.931a3.306,3.306,0,0,0,3.419-3.175h4.143c-.546,4.143-3.419,6.412-7.53,6.412-4.72,0-7.895-3.325-7.895-8.013,0-4.871,2.9-8.47,7.983-8.47,3.689,0,7.079,1.936,7.35,5.926m1,10.135v-21.6h4.294V235.97l5.415-5.624h5.083l-5.9,5.748,6.563,9.891h-1.93c-3.427,0-4.452-1.92-4.452-1.92L172.978,239l-1.663,1.6v5.387Zm31.45-6.051v-1.6c-.728.636-2.239.666-3.571.909-1.332.273-2.541.727-2.541,2.3,0,1.6,1.24,1.994,2.633,1.994,3.356,0,3.479-2.662,3.479-3.6m-5.628-4.78h-4.294c.241-4.021,3.84-5.231,7.35-5.231,3.117,0,6.864.7,6.864,4.447V242.5a8.026,8.026,0,0,0,.544,3.482s-4.656.408-4.656-1.516a7.17,7.17,0,0,1-5.264,1.938c-2.964,0-5.322-1.481-5.322-4.688,0-3.536,2.662-4.388,5.322-4.749,2.633-.4,5.083-.3,5.083-2.059,0-1.844-1.271-2.115-2.783-2.115-1.635,0-2.692.663-2.845,2.357M234.017,246c-1.261-.1-2.657-.421-2.789-1.368a1.429,1.429,0,0,1-.01-.146l.01-.133a5.512,5.512,0,0,1-4.6,2.072c-4.719,0-7.019-4.055-7.019-8.38,0-4.2,2.331-8.107,6.927-8.107a5.38,5.38,0,0,1,4.63,2.331l.059-7.868h4.3v17.282l.005.838a7.972,7.972,0,0,0,.545,3.479,14.254,14.254,0,0,1-2.057,0m-2.636-7.865c0-2.537-.909-4.96-3.693-4.96-2.812,0-3.779,2.423-3.779,4.991,0,2.451,1.117,5.022,3.779,5.022,2.845,0,3.693-2.483,3.693-5.054m-45.842,7.848c-.222-.024-.437-.05-.645-.086l-.144-.024-.121-.028-.185-.042-.123-.033-.2-.059-.17-.063-.146-.064a1.286,1.286,0,0,1-.853-.933V224.385h4.3l.011,18.138A8.207,8.207,0,0,0,187.8,246a14.3,14.3,0,0,1-2.264-.017m-35.723-15.638.007,12.177A9.292,9.292,0,0,0,150.4,246a11.423,11.423,0,0,1-2.787-.117c-1-.185-1.875-.581-1.875-1.4V243.8a5.84,5.84,0,0,1-4.869,2.6c-4.566,0-5.716-2.572-5.716-6.441v-9.619h4.294v8.831c0,2.572.758,3.84,2.754,3.84,2.328,0,3.327-1.3,3.327-4.475v-8.2Zm54.363,15.638V230.346h4.086v2.177a5.836,5.836,0,0,1,4.869-2.6c4.568,0,5.717,2.57,5.717,6.439v6.276l.005,1.3a2.563,2.563,0,0,0,.555,2.059,14.383,14.383,0,0,1-2.27-.017c-1.263-.123-2.582-.492-2.582-1.5l-.005-7.334c0-2.575-.756-3.843-2.751-3.843-2.329,0-3.324,1.3-3.324,4.477v8.2Zm-45,10.566h-4.6a4.668,4.668,0,0,0-4.719-3.782c-4.265,0-5.869,3.633-5.869,7.412,0,3.6,1.6,7.228,5.869,7.228,2.9,0,4.539-2,4.9-4.84h4.6c-.484,5.387-4.2,8.831-9.5,8.831-6.684,0-10.619-4.988-10.619-11.219,0-6.414,3.935-11.4,10.619-11.4,4.75,0,8.741,2.78,9.317,7.771m1.023,6.533c0-4.991,3.177-8.257,8.075-8.257,4.934,0,8.106,3.266,8.106,8.257,0,4.96-3.172,8.227-8.106,8.227-4.9,0-8.075-3.268-8.075-8.227m4.294,0c0,2.48.878,4.991,3.781,4.991,2.934,0,3.813-2.511,3.813-4.991,0-2.511-.879-5.019-3.813-5.019-2.9,0-3.781,2.508-3.781,5.019m59.824-2.331h-4.2a2.933,2.933,0,0,0-3.179-2.688c-2.75,0-3.656,2.78-3.656,5.078,0,2.239.876,4.933,3.567,4.933a3.305,3.305,0,0,0,3.417-3.176h4.143c-.541,4.143-3.417,6.412-7.53,6.412-4.718,0-7.895-3.328-7.895-8.014,0-4.872,2.905-8.47,7.985-8.47,3.692,0,7.076,1.935,7.352,5.926m1.025-5.5h4.293v15.638h-4.293Zm4.293-2.419h-4.293V249.29h4.293Zm1.6,16.722V248.425c.261.5,1.58.7,2.709.787.616.046,1.2.043,1.585.043l.009,18.171a8.117,8.117,0,0,0,.546,3.477,14.48,14.48,0,0,1-2.263-.016c-.224-.021-.439-.052-.645-.087l-.144-.026-.121-.024-.187-.043-.123-.033-.2-.063-.174-.059c-.6-.273-.931-.571-1-1m-37.8,1.336V255.249h4.081v2.173a5.843,5.843,0,0,1,4.872-2.6c4.566,0,5.715,2.573,5.715,6.447v6.27l0,1.311a2.563,2.563,0,0,0,.559,2.054,14.6,14.6,0,0,1-2.272-.016c-1.261-.123-2.581-.494-2.581-1.5l0-7.338c0-2.572-.758-3.843-2.754-3.843-2.328,0-3.328,1.3-3.328,4.476v8.2Zm-1.509-15.638.024,12.177a9.145,9.145,0,0,0,.558,3.479,11.524,11.524,0,0,1-2.787-.114c-1.006-.189-1.876-.581-1.876-1.4l0-.685a5.845,5.845,0,0,1-4.871,2.6c-4.566,0-5.715-2.572-5.715-6.443v-9.619h4.294v8.831c0,2.572.756,3.843,2.753,3.843,2.331,0,3.326-1.3,3.326-4.476v-8.2Z" transform="translate(-114.395 -212.757)" fill="#f5f5f5"/>
      <path id="Path_3461" data-name="Path 3461" d="M195.09,307.991l.829-3.891h.593l-.145.577a1.883,1.883,0,0,1,1.369-.669.889.889,0,0,1,.981.7,1.7,1.7,0,0,1,1.332-.7c.548,0,1.079.241,1.079.874a3.944,3.944,0,0,1-.111.775l-.394,1.88a2.51,2.51,0,0,0-.033.453h-.163c-.577,0-.412-.588-.412-.588l.416-1.882a2.3,2.3,0,0,0,.061-.422.552.552,0,0,0-.6-.525,1.377,1.377,0,0,0-.976.534,1.762,1.762,0,0,0-.361.874l-.426,2.008h-.642l.467-2.222a5.049,5.049,0,0,0,.119-.681.481.481,0,0,0-.541-.513,1.4,1.4,0,0,0-.954.5,1.443,1.443,0,0,0-.414.879l-.438,2.04Zm24.466-1.018c0,.364.337.541.7.541a1.209,1.209,0,0,0,1.091-.51,2.786,2.786,0,0,0,.337-1,4.04,4.04,0,0,1-1.263.264c-.458.067-.864.209-.864.706m.47-1.7h-.638a1.541,1.541,0,0,1,1.686-1.265c.752,0,1.42.2,1.42,1a3.546,3.546,0,0,1-.121.706l-.245,1.061a3.064,3.064,0,0,0-.106.557c0,.178.082.239.185.239a.614.614,0,0,0,.2-.053s-.062.566-.489.566a.455.455,0,0,1-.5-.548,1.538,1.538,0,0,1-1.316.548,1.043,1.043,0,0,1-1.188-1.1c0-1.127,1.106-1.2,1.963-1.28.676-.057.978-.1.978-.614,0-.422-.446-.513-.782-.513-.489,0-.971.2-1.048.7m7.008,1.7c0,.364.339.541.7.541a1.209,1.209,0,0,0,1.091-.51,2.842,2.842,0,0,0,.34-1,4.071,4.071,0,0,1-1.266.264c-.461.067-.864.209-.864.706m.474-1.7h-.64a1.539,1.539,0,0,1,1.684-1.265c.752,0,1.424.2,1.424,1a3.747,3.747,0,0,1-.121.706l-.248,1.061a3.063,3.063,0,0,0-.106.557c0,.178.082.239.187.239a.6.6,0,0,0,.2-.053s-.059.566-.489.566a.455.455,0,0,1-.5-.548,1.536,1.536,0,0,1-1.317.548,1.042,1.042,0,0,1-1.186-1.1c0-1.127,1.106-1.2,1.961-1.28.676-.057.978-.1.978-.614,0-.422-.444-.513-.782-.513-.489,0-.971.2-1.044.7m9.849,1.7c0,.364.34.541.7.541a1.21,1.21,0,0,0,1.093-.51,2.814,2.814,0,0,0,.338-1,4.062,4.062,0,0,1-1.265.264c-.457.067-.865.209-.865.706m.473-1.7h-.638a1.539,1.539,0,0,1,1.684-1.265c.751,0,1.42.2,1.42,1a3.64,3.64,0,0,1-.119.706l-.248,1.061a3.181,3.181,0,0,0-.106.557c0,.178.085.239.191.239a.63.63,0,0,0,.2-.053s-.063.566-.489.566a.455.455,0,0,1-.5-.548,1.532,1.532,0,0,1-1.315.548,1.045,1.045,0,0,1-1.191-1.1c0-1.127,1.106-1.2,1.968-1.28.675-.057.975-.1.975-.614,0-.422-.442-.513-.782-.513-.489,0-.97.2-1.046.7m-46.058,1.7c0,.364.34.541.7.541a1.208,1.208,0,0,0,1.089-.51,2.814,2.814,0,0,0,.339-1,4.042,4.042,0,0,1-1.267.264c-.457.067-.863.209-.863.706m.473-1.7h-.638a1.54,1.54,0,0,1,1.686-1.265c.753,0,1.421.2,1.421,1a4.089,4.089,0,0,1-.118.706l-.25,1.061a3.065,3.065,0,0,0-.1.557c0,.178.078.239.185.239a.635.635,0,0,0,.2-.053s-.063.566-.489.566a.455.455,0,0,1-.5-.548,1.538,1.538,0,0,1-1.316.548,1.043,1.043,0,0,1-1.188-1.1c0-1.127,1.106-1.2,1.965-1.28.674-.057.977-.1.977-.614,0-.422-.446-.513-.783-.513-.489,0-.971.2-1.047.7m9.752,1.7c0,.364.339.541.7.541a1.2,1.2,0,0,0,1.087-.51,2.691,2.691,0,0,0,.339-1,4.023,4.023,0,0,1-1.261.264c-.461.067-.867.209-.867.706m.477-1.7h-.642a1.54,1.54,0,0,1,1.686-1.265c.752,0,1.422.2,1.422,1a4.092,4.092,0,0,1-.12.706l-.251,1.061a3.245,3.245,0,0,0-.1.557c0,.178.083.239.187.239a.653.653,0,0,0,.2-.053s-.063.566-.493.566a.453.453,0,0,1-.5-.548,1.541,1.541,0,0,1-1.317.548,1.042,1.042,0,0,1-1.188-1.1c0-1.127,1.1-1.2,1.961-1.28.678-.057.98-.1.98-.614,0-.422-.445-.513-.782-.513-.492,0-.971.2-1.044.7m-25.253,1.7c0,.364.336.541.7.541a1.2,1.2,0,0,0,1.088-.51,2.755,2.755,0,0,0,.341-1,4.049,4.049,0,0,1-1.264.264c-.458.067-.865.209-.865.706m.475-1.7h-.64a1.538,1.538,0,0,1,1.684-1.265c.753,0,1.424.2,1.424,1a3.8,3.8,0,0,1-.121.706l-.248,1.061a3.062,3.062,0,0,0-.108.557c0,.178.083.239.189.239a.6.6,0,0,0,.2-.053s-.062.566-.489.566a.456.456,0,0,1-.5-.548,1.534,1.534,0,0,1-1.316.548,1.042,1.042,0,0,1-1.187-1.1c0-1.127,1.1-1.2,1.962-1.28.676-.057.978-.1.978-.614,0-.422-.442-.513-.783-.513-.489,0-.971.2-1.043.7m-6.932.4h2.258a.906.906,0,0,0-.913-1.1,1.379,1.379,0,0,0-1.346,1.1m2.836.562h-2.924a2.047,2.047,0,0,0-.024.34.945.945,0,0,0,1.008.938,1.1,1.1,0,0,0,1.121-.742h.64a1.7,1.7,0,0,1-1.76,1.308,1.488,1.488,0,0,1-1.646-1.566,2.254,2.254,0,0,1,2-2.5c1.143,0,1.646.626,1.646,1.724a2.383,2.383,0,0,1-.061.5m9.391.212a.98.98,0,0,0,1.07,1.067c.931,0,1.441-1.074,1.441-1.84a.981.981,0,0,0-1.023-1.1c-.975,0-1.488,1.07-1.488,1.873m-.638.009a2.267,2.267,0,0,1,2.173-2.447,1.458,1.458,0,0,1,1.616,1.61,2.26,2.26,0,0,1-2.149,2.461,1.54,1.54,0,0,1-1.641-1.624m-28.905.517c0,.364.34.541.7.541a1.2,1.2,0,0,0,1.088-.51,2.75,2.75,0,0,0,.338-1,3.989,3.989,0,0,1-1.261.264c-.459.067-.869.209-.869.706m.477-1.7h-.638a1.536,1.536,0,0,1,1.684-1.265c.754,0,1.424.2,1.424,1a4.1,4.1,0,0,1-.121.706l-.251,1.061a3.376,3.376,0,0,0-.1.557c0,.178.081.239.189.239a.647.647,0,0,0,.2-.053s-.064.566-.49.566a.454.454,0,0,1-.5-.548,1.541,1.541,0,0,1-1.318.548,1.04,1.04,0,0,1-1.185-1.1c0-1.127,1.1-1.2,1.961-1.28.674-.057.978-.1.978-.614,0-.422-.444-.513-.782-.513-.491,0-.973.2-1.046.7m-10.719.4h2.256a.9.9,0,0,0-.907-1.1,1.379,1.379,0,0,0-1.349,1.1m2.837.562h-2.928a3.3,3.3,0,0,0-.022.34.945.945,0,0,0,1.008.938,1.11,1.11,0,0,0,1.123-.742h.637a1.7,1.7,0,0,1-1.76,1.308,1.488,1.488,0,0,1-1.646-1.566,2.254,2.254,0,0,1,2-2.5c1.143,0,1.646.626,1.646,1.724a2.651,2.651,0,0,1-.059.5m59.232,1.756,1.135-5.372h.631l-.669,3.158,1.972-1.677h.838l-1.7,1.436.987,2.5h-.137a.746.746,0,0,1-.753-.475l-.607-1.639-.767.687-.3,1.386Zm-10.208-4.978s-.08.6-.439.6h-1.185c-.414,0-.239-.6-.239-.6Zm-51.289-.394-.139.6h-1.806l-1.006,4.772h-.715l1.01-4.772h-1.8l.125-.6Zm4.282,5.372,1.136-5.372h.716l-.565,2.645,3.056-2.645h.952l-2.588,2.208,1.724,3.164h-.218a.855.855,0,0,1-.772-.38l-1.267-2.346-1.075.91-.385,1.816Zm12.433-3.891-.7,3.3a2.445,2.445,0,0,0-.057.592h-.164c-.579,0-.4-.588-.4-.588a1.779,1.779,0,0,1-1.4.676c-.73,0-1.084-.314-1.084-1a4.025,4.025,0,0,1,.113-.758l.475-2.222h.636l-.494,2.27a4.376,4.376,0,0,0-.092.6c0,.37.3.541.678.541a1.524,1.524,0,0,0,1.391-1.263l.453-2.151Zm-.134,3.891.822-3.891h.614l-.118.587a1.775,1.775,0,0,1,1.4-.678c.731,0,1.082.317,1.082,1a3.894,3.894,0,0,1-.113.758l-.34,1.6a2.577,2.577,0,0,0-.062.623h-.165a.4.4,0,0,1-.434-.51l.387-1.764a4.265,4.265,0,0,0,.088-.6c0-.368-.3-.541-.676-.541a1.409,1.409,0,0,0-.964.451,1.625,1.625,0,0,0-.428.813L161,307.991Zm4,0,.812-3.891h.64l-.814,3.891Zm1.766-5.372-.165.782h-.647l.164-.782Zm-.317,5.372,1.136-5.372h.641l-.461,2.052a1.8,1.8,0,0,1,.818-.566,1.774,1.774,0,0,1,.366-.083,1.858,1.858,0,0,1,.215-.014c.73,0,1.084.317,1.084,1a4.054,4.054,0,0,1-.113.758l-.343,1.6a2.741,2.741,0,0,0-.066.623h-.161a.4.4,0,0,1-.436-.51l.389-1.764a4.082,4.082,0,0,0,.088-.6c0-.368-.3-.541-.675-.541a1.4,1.4,0,0,0-.963.451,1.59,1.59,0,0,0-.428.813l-.454,2.153Zm8.9-3.891h.6l-.189.833a1.65,1.65,0,0,1,1.428-.925,1.47,1.47,0,0,1,.229,0l-.149.687a1.425,1.425,0,0,0-.191-.009,1.33,1.33,0,0,0-.382.036,1.43,1.43,0,0,0-.83.633,2.337,2.337,0,0,0-.293.775l-.032.135-.234,1.1a2.931,2.931,0,0,0-.065.623h-.18a.394.394,0,0,1-.434-.51Zm17.761-1.481-.135.6h-1.809l-1.006,4.772H188.8l1.01-4.772H188l.127-.6Zm16.582,5.372.816-3.891h.635l-.81,3.891Zm1.769-5.372-.165.782H210l.165-.782Zm1.752,5.372,1.127-5.372h1l.713,4.619,2.671-4.619h.992l-1.136,5.372h-.685l1.1-4.7-2.754,4.7H214.9l-.7-4.7-.958,4.7Zm21.583-3.891-.7,3.3a2.42,2.42,0,0,0-.057.592h-.165c-.579,0-.4-.588-.4-.588a1.779,1.779,0,0,1-1.4.676c-.731,0-1.084-.314-1.084-1a4.2,4.2,0,0,1,.113-.758l.473-2.222h.638l-.494,2.27a4.464,4.464,0,0,0-.088.6c0,.37.3.541.675.541a1.53,1.53,0,0,0,1.394-1.263l.449-2.151Zm10.319,0-.7,3.3a2.528,2.528,0,0,0-.057.592h-.161c-.579,0-.4-.588-.4-.588a1.787,1.787,0,0,1-1.4.676c-.727,0-1.08-.314-1.08-1a4.07,4.07,0,0,1,.112-.758l.474-2.222h.642l-.5,2.27a4.464,4.464,0,0,0-.088.6c0,.37.3.541.676.541a1.523,1.523,0,0,0,1.391-1.263l.451-2.151Zm-9.641,0h.6l-.187.833a1.65,1.65,0,0,1,1.428-.925,1.421,1.421,0,0,1,.225,0l-.149.687a1.391,1.391,0,0,0-.189-.009,1.346,1.346,0,0,0-.383.036,1.423,1.423,0,0,0-.827.633,2.384,2.384,0,0,0-.3.775l-.03.135-.236,1.1a2.656,2.656,0,0,0-.064.623h-.179a.394.394,0,0,1-.434-.51Zm-11.949,3.891,1.136-5.372h.633l-.669,3.158,1.972-1.677h.83l-1.689,1.436.987,2.5h-.139a.741.741,0,0,1-.751-.475l-.607-1.639-.77.687-.3,1.386Z" transform="translate(-122.869 -239.358)" fill="#f5f5f5"/>
    </g>
  </g>
</svg>
