<svg id="layer1" xmlns="http://www.w3.org/2000/svg" width="126.336" height="30.429" viewBox="0 0 126.336 30.429">
  <path id="path30288" d="M123.095,16.076h0c2.445-.815,4.347-2.038,4.347-6.928,0-6.113-3.4-7.879-10.6-7.879H91.171V31.291h28.392c5.162,0,8.83-1.63,8.83-8.287,0-4.755-1.494-6.521-5.3-6.928m-5.841-6.113a2.26,2.26,0,0,1-2.581,2.445H101.088V7.654h13.584c1.63-.136,2.581.543,2.581,2.309m.815,11.954c0,1.766-1.223,2.581-3.26,2.581H100.952V19.336h13.856c2.038,0,3.26.543,3.26,2.581m-33.146,1.9V19.744c0-4.075-3.94-7.471-8.83-7.471H61.014c-1.63,0-2.581-.679-2.581-2.309,0-1.766.951-2.309,2.581-2.309H71.066c1.494,0,2.309.408,2.581,1.63v.408H83.836V8.6c0-3.939-3.8-7.2-8.558-7.2H56.395c-4.755,0-8.558,3.26-8.558,7.2v2.989c0,3.939,2.717,8.151,10.324,8.151H71.61c1.9,0,3.26.408,3.26,2.445,0,1.766-1.223,2.581-3.26,2.581h-10.6c-1.9,0-3.26-.815-3.26-2.445H47.7v.815c0,4.075,2.853,8.422,10.732,8.422h17.66c4.89-.272,8.83-3.668,8.83-7.743M35.747,31.291h9.917L29.634,1.269H17.951L2.057,31.291H12.11l2.581-5.3h18.2Zm-.679-19.833L18.087,21.1V11.457Zm-33.01,7.2L11.43,1.133H2.057Z" transform="translate(-2.057 -1.133)" fill="#f5f5f5"/>
</svg>
