<svg xmlns="http://www.w3.org/2000/svg" width="173.186" height="21.198" viewBox="0 0 173.186 21.198">
  <g id="Group_2781" data-name="Group 2781" transform="translate(-139.282 -64.893)">
    <path id="Path_3455" data-name="Path 3455" d="M146.942,70.457v1.57H143.83V82.376a3.369,3.369,0,0,0,.251,1.45c.168.351.591.539,1.262.572.533,0,1.063-.017,1.6-.07v1.542c-.275,0-.555.016-.831.03s-.56.046-.831.046a3.739,3.739,0,0,1-2.615-.727,3.678,3.678,0,0,1-.712-2.692l.013-10.5h-2.683v-1.57h2.683v-4.62h1.864v4.62Zm1.793-5.564V85.8h1.835V76.989a6.654,6.654,0,0,1,.368-2.069,4.906,4.906,0,0,1,.941-1.63,4.28,4.28,0,0,1,1.458-1.081,4.619,4.619,0,0,1,1.976-.4,4.377,4.377,0,0,1,1.86.352,2.994,2.994,0,0,1,1.188.966,3.84,3.84,0,0,1,.615,1.452,8.973,8.973,0,0,1,.173,1.8V85.8h1.836V76.083a10.42,10.42,0,0,0-.257-2.426,4.345,4.345,0,0,0-.911-1.833,4.251,4.251,0,0,0-1.71-1.154,7.352,7.352,0,0,0-2.645-.406,5.507,5.507,0,0,0-2.949.826,4.416,4.416,0,0,0-1.868,2.2h-.075v-8.4Zm50.86,5.8h-3.445l-2.528,9.28h-.06l-2.17-9.28h-4.015l-2.286,9.249h-.063l-2.406-9.249h-4.666L182.623,85.8h3.74l2.353-9.7h.06l2.352,9.7h3.919Zm8.982,8.477a4.729,4.729,0,0,1-.594,2.911,2.622,2.622,0,0,1-2.2,1.25,1.825,1.825,0,0,1-1.928-1.991c0-2.2,3.06-2.585,4.726-2.763Zm4.761,6.634a7.359,7.359,0,0,1-.3-2.269V76.5c0-1.816.147-3.479-1.4-4.734a8.012,8.012,0,0,0-4.788-1.363c-3.182,0-6.746,1.067-7.192,4.721l4.131.394c0-1.494,1.219-2.2,2.618-2.2a2.282,2.282,0,0,1,1.78.7,3.132,3.132,0,0,1,.385,2v.351a25.093,25.093,0,0,0-5.973.946,4.718,4.718,0,0,0-3.387,4.491c0,2.861,2.077,4.282,4.755,4.282a5.3,5.3,0,0,0,4.814-2.643,9.052,9.052,0,0,0,.206,2.354Zm1.9-15.111V85.8h4.367v-5.77c0-2.676.417-5.382,3.746-5.208V70.457l-.75-.059c-1.893-.149-2.788,1.511-3.237,3.121h-.058V70.69Zm12.9,5.71c.15-1.721.9-3.147,2.827-3.147,1.9,0,2.438,1.519,2.526,3.147Zm9.722,2.589a9.651,9.651,0,0,0-1.544-5.909,6.888,6.888,0,0,0-5.528-2.68c-4.7,0-7.343,3.593-7.343,8.05,0,4.5,2.94,7.642,7.459,7.642a6.864,6.864,0,0,0,6.862-5.2l-4.039-.294a2.567,2.567,0,0,1-2.674,2.377c-1.9,0-2.916-1.456-2.916-3.234l.036-.747Zm14.508-2.8c0-1.447.091-2.968-.835-4.159a4.7,4.7,0,0,0-3.771-1.633,4.132,4.132,0,0,0-3.924,2.379h-.063V65.409H239.4V85.8h4.369v-8.15A6.124,6.124,0,0,1,244.157,75a2.33,2.33,0,0,1,2.083-1.13c1.9,0,1.752,2.469,1.752,3.776V85.8h4.372Zm6.15,1.581c0-1.721.151-4.494,2.5-4.494a1.969,1.969,0,0,1,2.078,1.371,11.312,11.312,0,0,1,.475,3.74c0,1.82-.117,4.786-2.587,4.786-2.5,0-2.467-3.683-2.467-5.4m9.748.589c0-4.462-2.555-7.962-7.282-7.962-4.6,0-7.165,3.421-7.165,7.815,0,4.376,2.531,7.878,7.165,7.878,4.463,0,7.282-3.412,7.282-7.73M282.62,85.8V70.69h-4.367V78.81a5.957,5.957,0,0,1-.238,2.321,2.364,2.364,0,0,1-2.2,1.458c-1.545,0-1.662-1.16-1.662-2.379V70.69h-4.366v9.52c0,1.454-.1,2.885.736,4.188a3.9,3.9,0,0,0,3.69,1.693,4.282,4.282,0,0,0,4.307-2.878h.059V85.8Zm14-11.449c-1.04-2.824-2.97-3.954-5.944-3.954-3.211,0-6.45,1.347-6.45,5.051A4.281,4.281,0,0,0,287.2,79.53a32.475,32.475,0,0,0,4.488.882c.8.094,1.692.274,1.692,1.282,0,1.136-1.813,1.425-2.645,1.425-1.394,0-3.03-.467-3.328-2.023l-3.772.54c.8,3.39,3.739,4.456,6.9,4.456a8.067,8.067,0,0,0,4.695-1.245,4.751,4.751,0,0,0,2.021-3.9c0-6.806-9.064-3.59-9.064-6.416,0-1.1,1.369-1.332,2.26-1.332a2.728,2.728,0,0,1,2.938,2.021Zm6.125,2.047c.148-1.721.892-3.147,2.82-3.147,1.9,0,2.442,1.519,2.53,3.147Zm9.719,2.589a9.645,9.645,0,0,0-1.548-5.909,6.885,6.885,0,0,0-5.523-2.68c-4.7,0-7.344,3.593-7.344,8.05,0,4.5,2.94,7.642,7.464,7.642a6.867,6.867,0,0,0,6.862-5.2l-4.044-.294a2.569,2.569,0,0,1-2.672,2.377c-1.9,0-2.913-1.456-2.913-3.234l.027-.747ZM164.943,75.144a8.12,8.12,0,0,0-.486,1.988h9.7a6.558,6.558,0,0,0-.36-2,5.471,5.471,0,0,0-.949-1.7,4.546,4.546,0,0,0-1.48-1.189,4.191,4.191,0,0,0-1.97-.453,4.259,4.259,0,0,0-2.009.453,4.641,4.641,0,0,0-1.479,1.189,5.779,5.779,0,0,0-.969,1.707m7.581,8.388a5.425,5.425,0,0,0,1.526-2.659l1.654.647a6.905,6.905,0,0,1-1.918,3.173,6.4,6.4,0,0,1-4.4,1.39,6.925,6.925,0,0,1-3.054-.621,5.67,5.67,0,0,1-2.1-1.719,7.4,7.4,0,0,1-1.2-2.522,11.4,11.4,0,0,1-.394-3.042,10.707,10.707,0,0,1,.394-2.9,7.693,7.693,0,0,1,1.206-2.546,6.046,6.046,0,0,1,2.1-1.806,6.567,6.567,0,0,1,3.068-.674,5.928,5.928,0,0,1,5.152,2.626,7.959,7.959,0,0,1,1.146,2.694,12.046,12.046,0,0,1,.29,3.095h-11.53a8.393,8.393,0,0,0,.274,2.049,5.885,5.885,0,0,0,.887,1.911,5.139,5.139,0,0,0,1.539,1.4,4.281,4.281,0,0,0,2.228.546,4.437,4.437,0,0,0,3.139-1.043" fill="#f5f5f5"/>
  </g>
</svg>
