<svg xmlns="http://www.w3.org/2000/svg" width="81.191" height="60.011" viewBox="0 0 81.191 60.011">
  <g id="Group_2788" data-name="Group 2788" transform="translate(-310.932 1129.359)">
    <path id="Path_3473" data-name="Path 3473" d="M391.942-1101.089a8.314,8.314,0,0,0-3.131-4.933c-.581-.425-1.181-.822-1.766-1.24q-14.051-9.791-28.1-19.586a13.523,13.523,0,0,0-2.163-1.317,12.185,12.185,0,0,0-6.733-1.114,12.062,12.062,0,0,0-4.8,1.665c-.56.334-1.078.728-1.615,1.1q-14.254,9.935-28.509,19.872a10.863,10.863,0,0,0-1.736,1.369,8.336,8.336,0,0,0-2.376,7.073,8.317,8.317,0,0,0,3.366,5.62l28.788,20.067a25.186,25.186,0,0,0,2.818,1.832,12.131,12.131,0,0,0,11.186-.059,19.928,19.928,0,0,0,2.291-1.481l29.186-20.344a8.36,8.36,0,0,0,2.8-3.493A8.406,8.406,0,0,0,391.942-1101.089Zm-4.952,6.276q-15.02,10.474-30.043,20.944a9.241,9.241,0,0,1-4.623,1.7,9.267,9.267,0,0,1-5.949-1.517q-15.137-10.538-30.265-21.09a5.567,5.567,0,0,1-2.2-3.117,5.611,5.611,0,0,1,.673-4.443,5.951,5.951,0,0,1,1.8-1.78q14.774-10.292,29.541-20.591a9.463,9.463,0,0,1,4.134-1.751,9.372,9.372,0,0,1,5.279.7,16.235,16.235,0,0,1,2.69,1.676q13.877,9.673,27.753,19.344a10.922,10.922,0,0,1,2.273,1.828,5.407,5.407,0,0,1,1.271,3.559A5.473,5.473,0,0,1,386.99-1094.813Z" fill="#f5f5f5" fill-rule="evenodd"/>
    <path id="Path_3474" data-name="Path 3474" d="M466.193-1054.914c2.532-.016,5.063,0,7.6-.01-3.87,2.661-7.7,5.384-11.572,8.039A39.129,39.129,0,0,0,466.193-1054.914ZM453.872-1091a.826.826,0,0,1,.324-.271q-.009,5.031,0,10.064H448.03a40.486,40.486,0,0,1,2.724-5.52A26,26,0,0,1,453.872-1091Zm3.158-.335a26.4,26.4,0,0,1,3.657,5.008,41.048,41.048,0,0,1,2.489,5.111c-2.049.022-4.1,0-6.15.012C457.04-1084.578,457.033-1087.955,457.03-1091.332Zm-15.073,6.981c2.348-1.647,4.709-3.274,7.053-4.927A40.649,40.649,0,0,0,445-1081.2c-2.529-.013-5.058,0-7.587-.007C438.945-1082.224,440.436-1083.311,441.957-1084.351Zm20.276-4.877c3.871,2.649,7.693,5.373,11.56,8.027-2.53-.007-5.061,0-7.59,0A40.185,40.185,0,0,0,462.232-1089.228Zm-24.823,34.312c2.53-.012,5.06,0,7.591-.008a40.787,40.787,0,0,0,4.01,8.077c-3.253-2.29-6.529-4.551-9.787-6.834C438.614-1054.089,438.032-1054.536,437.409-1054.917Zm10.622-.006c2.055.009,4.11-.005,6.165.007-.011,3.356,0,6.713-.006,10.069a13.425,13.425,0,0,1-1.733-1.995A37.113,37.113,0,0,1,448.031-1054.923Zm9,0c2.049.015,4.1-.01,6.147.012a33.086,33.086,0,0,1-6.147,10.117Q457.039-1049.86,457.029-1054.925Z" transform="translate(-104.076 -31.292)" fill="#f5f5f5" fill-rule="evenodd"/>
    <path id="Path_3475" data-name="Path 3475" d="M412.069-1009.562a3.436,3.436,0,0,0-.972-.864q-5.585-3.885-11.163-7.779c-.156-.119-.364-.051-.544-.069q-22.009,0-44.021,0-5.757,4-11.505,8.017a2.722,2.722,0,0,0-1.244,2.305,2.722,2.722,0,0,0,1.231,2.3q5.757,4.016,11.516,8.028,22.216-.01,44.433,0c.7-.416,1.356-.933,2.038-1.391q4.8-3.341,9.595-6.689A2.764,2.764,0,0,0,412.069-1009.562Zm-37.7,8.474q-2.262.013-4.524,0-3.361-4.279-6.716-8.561c-.013,2.855,0,5.71-.006,8.566-1.362,0-2.725.008-4.087,0q0-6.861,0-13.722,2.677,0,5.355,0c1.959,2.59,3.946,5.16,5.892,7.76.022-2.586.01-5.172.016-7.759q2.037-.007,4.073,0Q374.369-1007.949,374.372-1001.088Zm19.775,0c-1.7.02-3.394,0-5.091.008-.774-2.611-1.514-5.232-2.289-7.843-.776,2.61-1.532,5.227-2.291,7.842q-2.4,0-4.793,0c-1.256-4.574-2.5-9.151-3.774-13.721,1.567-.013,3.133,0,4.7-.009q1.015,4.055,1.981,8.123c.747-2.7,1.463-5.409,2.187-8.115,1.463-.009,2.925,0,4.388-.005.247.892.474,1.788.727,2.678q.76,2.893,1.544,5.78c.749-2.811,1.449-5.637,2.174-8.457h4.305C396.686-1010.232,395.373-1005.673,394.147-1001.091Z" transform="translate(-26.074 -91.407)" fill="#f5f5f5" fill-rule="evenodd"/>
  </g>
</svg>
