<svg xmlns="http://www.w3.org/2000/svg" width="158.413" height="78.837" viewBox="0 0 158.413 78.837">
  <path id="Path_3454" data-name="Path 3454" d="M25.1,197.816H45.482v8.818c5.016-6.733,10.534-10.4,18.983-10.4,14.812,0,21.782,8.686,21.782,24.132v33.689H63.937V224.324c0-5.571-1.531-10.534-7.841-10.534-6.865,0-8.686,4.409-8.686,11.591v28.646H25.1Zm66.956,56.21h22.336v-56.21H92.056Zm0-61.464h22.336V176.8H92.056Zm59.774,47.022c-7.287,0-9.426-7.6-9.426-13.6,0-5.808,2.693-12.435,9.426-12.435,7.181,0,9.426,6.865,9.426,12.858C161.256,232.482,159.117,239.584,151.83,239.584ZM142.906,176.8H120.6v77.226h20.039v-7.947h.185c2.8,5.386,7.947,9.558,17.267,9.558,18.376,0,25.425-13.412,25.425-30.072,0-16.95-10.086-29.385-24.448-29.385-6.68,0-11.8,2.139-16.211,7.287V176.8Z" transform="translate(-25.1 -176.8)" fill="#f5f5f5"/>
</svg>
