<svg xmlns="http://www.w3.org/2000/svg" width="21.582" height="21.582" viewBox="0 0 21.582 21.582"><defs><style>.a{fill:#f5f5f5;}</style></defs><path class="a" d="M291.126,508.668q-.135.022-.271.04Q290.991,508.69,291.126,508.668Zm0,0" transform="translate(-278.595 -487.226)"/><path class="a" d="M299.469,507.793l-.129.023Zm0,0" transform="translate(-286.722 -486.388)"/><path class="a" d="M277.927,510.34q-.158.018-.317.031Q277.769,510.358,277.927,510.34Zm0,0" transform="translate(-265.908 -488.828)"/><path class="a" d="M286.6,509.738l-.152.019Zm0,0" transform="translate(-274.371 -488.252)"/><path class="a" d="M306.778,506.41l-.114.024Zm0,0" transform="translate(-293.737 -485.064)"/><path class="a" d="M324.576,502.113l-.092.026Zm0,0" transform="translate(-310.807 -480.948)"/><path class="a" d="M319.159,503.543l-.1.026Zm0,0" transform="translate(-305.609 -482.317)"/><path class="a" d="M312.173,505.254l-.106.024Zm0,0" transform="translate(-298.912 -483.956)"/><path class="a" d="M273.651,511.09l-.171.013Zm0,0" transform="translate(-261.953 -489.546)"/><path class="a" d="M21.582,10.791A10.791,10.791,0,1,0,10.791,21.582l.19,0v-8.4H8.662v-2.7h2.318V8.489a3.245,3.245,0,0,1,3.465-3.561,19.084,19.084,0,0,1,2.078.106v2.41H15.105c-1.119,0-1.336.532-1.336,1.312v1.721h2.676l-.349,2.7H13.77v7.986A10.8,10.8,0,0,0,21.582,10.791Zm0,0"/><path class="a" d="M265.229,511.43q-.168.011-.338.017Q265.06,511.441,265.229,511.43Zm0,0" transform="translate(-253.725 -489.872)"/><path class="a" d="M260.683,511.836l-.179,0Zm0,0" transform="translate(-249.523 -490.261)"/></svg>