<svg xmlns="http://www.w3.org/2000/svg" width="21.143" height="21.574" viewBox="0 0 21.143 21.574"><defs><style>.a{fill:#4285f4;}.b{fill:#34a853;}.c{fill:#fbbc05;}.d{fill:#eb4335;}</style></defs><path class="a" d="M140.906,108.966a9.244,9.244,0,0,0-.228-2.205H130.55v4h5.945a5.271,5.271,0,0,1-2.205,3.5l-.02.134,3.2,2.481.222.022a10.547,10.547,0,0,0,3.212-7.935" transform="translate(-119.763 -97.94)"/><path class="b" d="M23.562,165.024a10.282,10.282,0,0,0,7.143-2.613l-3.4-2.637a6.384,6.384,0,0,1-3.74,1.079,6.494,6.494,0,0,1-6.137-4.483l-.127.011-3.33,2.577-.044.121a10.779,10.779,0,0,0,9.637,5.945" transform="translate(-12.774 -143.449)"/><path class="c" d="M4.65,78.34a6.641,6.641,0,0,1-.36-2.133,6.978,6.978,0,0,1,.348-2.133l-.006-.143L1.261,71.312l-.11.052a10.764,10.764,0,0,0,0,9.684l3.5-2.709" transform="translate(0 -65.42)"/><path class="d" d="M23.562,4.171a5.979,5.979,0,0,1,4.171,1.606L30.777,2.8A10.364,10.364,0,0,0,23.562,0a10.779,10.779,0,0,0-9.637,5.945l3.488,2.709a6.521,6.521,0,0,1,6.149-4.483" transform="translate(-12.774)"/></svg>